<svg width="41" height="41" viewBox="0 0 41 41" fill="none" xmlns="http://www.w3.org/2000/svg">
<rect x="0.863281" y="0.903229" width="40" height="40" rx="10" fill="#FF684C" fill-opacity="0.12"/>
<g clip-path="url(#clip0_374_6436)">
<path d="M20.8634 15.9032C20.2041 15.9032 19.5596 16.0987 19.0115 16.465C18.4633 16.8313 18.0361 17.3519 17.7838 17.961C17.5315 18.57 17.4655 19.2403 17.5941 19.8869C17.7227 20.5335 18.0402 21.1274 18.5063 21.5936C18.9725 22.0598 19.5665 22.3772 20.2131 22.5058C20.8597 22.6345 21.5299 22.5685 22.139 22.3162C22.7481 22.0639 23.2687 21.6366 23.6349 21.0885C24.0012 20.5403 24.1967 19.8958 24.1967 19.2366C24.1967 18.3525 23.8455 17.5047 23.2204 16.8795C22.5953 16.2544 21.7474 15.9032 20.8634 15.9032ZM20.8634 20.9032C20.5337 20.9032 20.2115 20.8055 19.9374 20.6223C19.6633 20.4392 19.4497 20.1789 19.3236 19.8744C19.1974 19.5698 19.1644 19.2347 19.2287 18.9114C19.293 18.5881 19.4518 18.2911 19.6849 18.0581C19.9179 17.825 20.2149 17.6662 20.5382 17.6019C20.8615 17.5376 21.1966 17.5706 21.5012 17.6968C21.8057 17.8229 22.066 18.0365 22.2491 18.3106C22.4323 18.5847 22.53 18.9069 22.53 19.2366C22.53 19.6786 22.3544 20.1025 22.0419 20.4151C21.7293 20.7276 21.3054 20.9032 20.8634 20.9032Z" fill="#FF684C"/>
<path d="M20.8633 30.9035C20.1616 30.9071 19.4692 30.7425 18.8442 30.4235C18.2191 30.1045 17.6796 29.6405 17.2708 29.0701C14.095 24.6893 12.4841 21.396 12.4841 19.281C12.4841 17.0587 13.3669 14.9274 14.9383 13.356C16.5097 11.7846 18.641 10.9018 20.8633 10.9018C23.0856 10.9018 25.2169 11.7846 26.7883 13.356C28.3597 14.9274 29.2425 17.0587 29.2425 19.281C29.2425 21.396 27.6316 24.6893 24.4558 29.0701C24.047 29.6405 23.5074 30.1045 22.8824 30.4235C22.2574 30.7425 21.565 30.9071 20.8633 30.9035V30.9035ZM20.8633 12.721C19.1236 12.7229 17.4558 13.4149 16.2257 14.645C14.9956 15.8751 14.3036 17.543 14.3016 19.2826C14.3016 20.9576 15.8791 24.0551 18.7425 28.0043C18.9855 28.3391 19.3044 28.6116 19.6731 28.7995C20.0417 28.9874 20.4495 29.0854 20.8633 29.0854C21.277 29.0854 21.6849 28.9874 22.0535 28.7995C22.4222 28.6116 22.7411 28.3391 22.9841 28.0043C25.8475 24.0551 27.425 20.9576 27.425 19.2826C27.423 17.543 26.731 15.8751 25.5009 14.645C24.2708 13.4149 22.603 12.7229 20.8633 12.721V12.721Z" fill="#FF684C"/>
</g>
<defs>
<clipPath id="clip0_374_6436">
<rect width="20" height="20" fill="white" transform="translate(10.8633 10.9032)"/>
</clipPath>
</defs>
</svg>
