<svg width="41" height="41" viewBox="0 0 41 41" fill="none" xmlns="http://www.w3.org/2000/svg">
<rect x="0.863281" y="0.903229" width="40" height="40" rx="10" fill="#FF684C" fill-opacity="0.12"/>
<g clip-path="url(#clip0_374_6450)">
<path d="M21.6965 11.7366C21.6965 11.5156 21.7843 11.3037 21.9406 11.1474C22.0969 10.9911 22.3088 10.9033 22.5298 10.9033C24.7392 10.9057 26.8574 11.7845 28.4197 13.3468C29.982 14.909 30.8607 17.0272 30.8632 19.2366C30.8632 19.4577 30.7754 19.6696 30.6191 19.8259C30.4628 19.9822 30.2508 20.07 30.0298 20.07C29.8088 20.07 29.5969 19.9822 29.4406 19.8259C29.2843 19.6696 29.1965 19.4577 29.1965 19.2366C29.1945 17.4691 28.4915 15.7746 27.2417 14.5248C25.9919 13.275 24.2973 12.572 22.5298 12.57C22.3088 12.57 22.0969 12.4822 21.9406 12.3259C21.7843 12.1696 21.6965 11.9577 21.6965 11.7366V11.7366ZM22.5298 15.9033C23.4139 15.9033 24.2617 16.2545 24.8869 16.8796C25.512 17.5047 25.8632 18.3526 25.8632 19.2366C25.8632 19.4577 25.951 19.6696 26.1072 19.8259C26.2635 19.9822 26.4755 20.07 26.6965 20.07C26.9175 20.07 27.1295 19.9822 27.2858 19.8259C27.442 19.6696 27.5298 19.4577 27.5298 19.2366C27.5285 17.911 27.0013 16.64 26.0639 15.7026C25.1265 14.7652 23.8555 14.238 22.5298 14.2366C22.3088 14.2366 22.0969 14.3244 21.9406 14.4807C21.7843 14.637 21.6965 14.849 21.6965 15.07C21.6965 15.291 21.7843 15.503 21.9406 15.6592C22.0969 15.8155 22.3088 15.9033 22.5298 15.9033V15.9033ZM30.1073 24.8525C30.5903 25.3367 30.8614 25.9927 30.8614 26.6766C30.8614 27.3605 30.5903 28.0165 30.1073 28.5008L29.349 29.375C22.524 35.9091 5.91569 19.305 12.349 12.4583L13.3074 11.625C13.7922 11.1555 14.4423 10.8958 15.1171 10.9021C15.7919 10.9083 16.4371 11.18 16.9132 11.6583C16.939 11.6841 18.4832 13.69 18.4832 13.69C18.9414 14.1713 19.1964 14.8107 19.1953 15.4753C19.1943 16.1399 18.9371 16.7785 18.4773 17.2583L17.5123 18.4716C18.0464 19.7692 18.8316 20.9485 19.8228 21.9417C20.814 22.9349 21.9917 23.7225 23.2882 24.2591L24.509 23.2883C24.9889 22.8289 25.6274 22.5721 26.2917 22.5711C26.9561 22.5702 27.5953 22.8253 28.0765 23.2833C28.0765 23.2833 30.0815 24.8266 30.1073 24.8525ZM28.9607 26.0641C28.9607 26.0641 26.9665 24.53 26.9407 24.5041C26.769 24.3339 26.537 24.2384 26.2953 24.2384C26.0535 24.2384 25.8215 24.3339 25.6498 24.5041C25.6273 24.5275 23.9465 25.8666 23.9465 25.8666C23.8332 25.9568 23.6984 26.0159 23.5554 26.0381C23.4123 26.0603 23.2659 26.0449 23.1307 25.9933C21.4511 25.368 19.9255 24.3889 18.6572 23.1225C17.389 21.8562 16.4077 20.332 15.7798 18.6533C15.7242 18.5162 15.706 18.3667 15.7273 18.2203C15.7485 18.0738 15.8084 17.9356 15.9007 17.82C15.9007 17.82 17.2398 16.1383 17.2623 16.1166C17.4326 15.945 17.5281 15.713 17.5281 15.4712C17.5281 15.2295 17.4326 14.9975 17.2623 14.8258C17.2365 14.8008 15.7023 12.805 15.7023 12.805C15.5281 12.6487 15.3007 12.5651 15.0667 12.5711C14.8328 12.5771 14.61 12.6724 14.444 12.8375L13.4857 13.6708C8.78402 19.3241 23.1765 32.9183 28.1307 28.2366L28.8898 27.3616C29.0677 27.1969 29.1746 26.9694 29.1878 26.7272C29.201 26.4851 29.1196 26.2473 28.9607 26.0641V26.0641Z" fill="#FF684C"/>
</g>
<defs>
<clipPath id="clip0_374_6450">
<rect width="20" height="20" fill="white" transform="translate(10.8633 10.9032)"/>
</clipPath>
</defs>
</svg>
