<svg width="20" height="21" viewBox="0 0 20 21" fill="none" xmlns="http://www.w3.org/2000/svg">
<path d="M1.25002 8.9375C1.25002 5.31313 4.18815 2.375 7.81252 2.375C11.4369 2.375 14.375 5.31313 14.375 8.9375C14.375 12.5619 11.4375 15.5 7.81252 15.5C6.75877 15.5 5.7619 15.2512 4.87815 14.8087L2.43127 15.4644C2.27233 15.5069 2.10497 15.5069 1.94604 15.4643C1.7871 15.4217 1.64217 15.3381 1.52582 15.2217C1.40946 15.1054 1.32578 14.9604 1.28319 14.8015C1.24059 14.6425 1.24058 14.4752 1.28315 14.3163L1.9394 11.8675C1.48352 10.9582 1.2474 9.95465 1.25002 8.9375ZM7.81252 16.4375C8.22919 16.4371 8.63648 16.4042 9.0344 16.3387C9.94697 17.0136 11.0525 17.377 12.1875 17.375C13.1163 17.375 13.9875 17.1375 14.7463 16.7194C14.8876 16.6416 15.0535 16.6214 15.2094 16.6631L17.3694 17.2419L16.7906 15.0806C16.7491 14.925 16.7692 14.7593 16.8469 14.6181C17.277 13.8351 17.5017 12.9559 17.5 12.0625C17.5006 11.2031 17.2924 10.3565 16.8934 9.59542C16.4944 8.83432 15.9165 8.18151 15.2094 7.69312C15.1121 7.11329 14.9471 6.5469 14.7175 6.00563C15.9122 6.5048 16.9326 7.34622 17.6501 8.42399C18.3677 9.50176 18.7504 10.7677 18.75 12.0625C18.7505 13.0793 18.5148 14.0824 18.0613 14.9925L18.7175 17.4413C18.7601 17.6003 18.7601 17.7677 18.7175 17.9267C18.6749 18.0857 18.5912 18.2307 18.4747 18.3471C18.3583 18.4634 18.2133 18.5471 18.0542 18.5896C17.8952 18.6322 17.7278 18.6321 17.5688 18.5894L15.1219 17.9337C14.211 18.3896 13.2061 18.6263 12.1875 18.625C10.235 18.625 8.48127 17.7725 7.2794 16.4187C7.45565 16.4312 7.63335 16.4375 7.81252 16.4375Z" fill="white"/>
</svg>
