<svg width="41" height="41" viewBox="0 0 41 41" fill="none" xmlns="http://www.w3.org/2000/svg">
<rect x="0.863281" y="0.903229" width="40" height="40" rx="10" fill="#FF684C" fill-opacity="0.12"/>
<g clip-path="url(#clip0_374_6443)">
<path d="M26.6966 11.7364H15.0299C13.9253 11.7377 12.8662 12.1772 12.0851 12.9583C11.304 13.7394 10.8646 14.7984 10.8633 15.9031V25.9031C10.8646 27.0077 11.304 28.0668 12.0851 28.8479C12.8662 29.629 13.9253 30.0684 15.0299 30.0698H26.6966C27.8013 30.0684 28.8603 29.629 29.6414 28.8479C30.4225 28.0668 30.862 27.0077 30.8633 25.9031V15.9031C30.862 14.7984 30.4225 13.7394 29.6414 12.9583C28.8603 12.1772 27.8013 11.7377 26.6966 11.7364V11.7364ZM15.0299 13.4031H26.6966C27.1956 13.4041 27.6829 13.5543 28.0957 13.8346C28.5086 14.1148 28.8282 14.5122 29.0133 14.9756L22.6316 21.3581C22.162 21.8258 21.5261 22.0885 20.8633 22.0885C20.2004 22.0885 19.5646 21.8258 19.0949 21.3581L12.7133 14.9756C12.8984 14.5122 13.218 14.1148 13.6308 13.8346C14.0437 13.5543 14.531 13.4041 15.0299 13.4031V13.4031ZM26.6966 28.4031H15.0299C14.3669 28.4031 13.731 28.1397 13.2622 27.6709C12.7933 27.202 12.5299 26.5661 12.5299 25.9031V17.1531L17.9166 22.5364C18.6988 23.3166 19.7585 23.7548 20.8633 23.7548C21.9681 23.7548 23.0278 23.3166 23.8099 22.5364L29.1966 17.1531V25.9031C29.1966 26.5661 28.9332 27.202 28.4644 27.6709C27.9955 28.1397 27.3597 28.4031 26.6966 28.4031Z" fill="#FF684C"/>
</g>
<defs>
<clipPath id="clip0_374_6443">
<rect width="20" height="20" fill="white" transform="translate(10.8633 10.9032)"/>
</clipPath>
</defs>
</svg>
