<svg width="24" height="53" viewBox="0 0 24 53" fill="none" xmlns="http://www.w3.org/2000/svg">
<path d="M14.6765 37.9007L14.5763 37.8796C14.4722 38.017 14.3172 38.1774 14.2501 38.3358L14.2753 38.3796C14.4319 38.2721 14.5616 38.0517 14.6765 37.9007Z" fill="url(#paint0_linear_374_5087)"/>
<path d="M14.0255 7.62656C13.8414 7.82463 13.5335 8.18454 13.4373 8.43167C13.4251 8.46283 13.4313 8.44858 13.4115 8.48423C13.6835 8.23683 13.882 7.96538 14.0255 7.62656Z" fill="url(#paint1_linear_374_5087)"/>
<path d="M14.6765 37.9007C14.9285 37.5481 15.2043 37.2038 15.3862 36.8087C15.0879 37.1407 14.8368 37.5176 14.5763 37.8796L14.6765 37.9007Z" fill="url(#paint2_linear_374_5087)"/>
<path d="M7.09162 30.7805C6.7627 30.4466 6.3491 30.1738 5.91726 29.9895C6.19521 30.2316 6.75001 30.6865 7.09162 30.7805Z" fill="url(#paint3_linear_374_5087)"/>
<path d="M14.6622 23.2981C14.4834 23.2671 14.304 23.3052 14.1236 23.2817C14.139 23.3418 14.1377 23.3652 14.1848 23.4076C14.2386 23.3998 14.2827 23.3822 14.334 23.4022C14.379 23.4198 14.4163 23.4165 14.4608 23.3989C14.3382 23.6488 14.1451 23.8813 13.9817 24.1066L13.2392 25.1251C13.1443 25.2534 12.9832 25.4152 12.9237 25.5594C12.9089 25.5951 12.9147 25.6054 12.927 25.6415C13.1534 25.4668 13.459 24.9724 13.641 24.7219C13.9841 24.2498 14.3332 23.7802 14.6622 23.2981Z" fill="url(#paint4_linear_374_5087)"/>
<path d="M19.6051 49.453C19.0441 48.9724 18.4966 48.4769 17.9625 47.9667C17.4284 47.4564 16.9086 46.9321 16.403 46.3937C15.8974 45.8552 15.4069 45.3034 14.9314 44.7385C14.4559 44.1735 13.9961 43.5961 13.552 43.0063C13.1047 42.4253 12.6687 41.8362 12.2438 41.2389C12.1479 41.1049 11.6479 40.3269 11.5681 40.2889C11.5482 40.3405 11.5755 40.3857 11.5975 40.4349C11.75 40.7765 11.8832 41.1367 12.047 41.4718C12.1316 41.645 12.2526 41.8126 12.3446 41.9851C12.4632 42.2073 12.5693 42.438 12.693 42.6573C12.8239 42.8893 12.9746 43.113 13.1155 43.3393C13.4519 43.88 13.7986 44.4228 14.1757 44.9367C14.5889 45.4998 15.039 46.0428 15.4869 46.5785C15.7495 46.8928 16.0116 47.2059 16.2907 47.5059C16.3766 47.5982 16.4641 47.7095 16.5603 47.7899C16.6203 47.8556 16.6838 47.9433 16.754 47.9963C16.9622 48.2487 17.2156 48.4786 17.4469 48.7104C18.1035 49.3681 18.793 50.0142 19.492 50.6273C19.861 50.951 20.2845 51.2281 20.6108 51.6007L21.7152 52.4031C21.9956 52.4059 22.3587 52.3413 22.6192 52.2424C22.7839 52.1798 22.9814 52.0769 23.0491 51.9042C23.0771 51.8327 23.0912 51.6966 23.0592 51.6281C23.0204 51.5925 22.182 51.1775 22.121 51.1689C21.7857 50.954 21.4351 50.7627 21.1015 50.5481C20.7958 50.3515 20.5031 50.1217 20.2087 49.9079C20.0067 49.761 19.7925 49.6182 19.6051 49.453ZM22.121 51.1689C22.0034 51.206 21.9334 51.1529 21.8287 51.0982C21.6693 51.0151 21.5189 50.9156 21.3719 50.8123C21.1418 50.6507 20.9277 50.4685 20.7008 50.3027C20.3621 50.0551 20.0081 49.8183 19.6793 49.5587C19.6507 49.536 19.6238 49.5156 19.612 49.4797C19.6091 49.471 19.6074 49.4619 19.6051 49.453C19.7925 49.6182 20.0067 49.761 20.2087 49.9079C20.5031 50.1217 20.7958 50.3515 21.1015 50.5481C21.4351 50.7627 21.7857 50.954 22.121 51.1689ZM16.754 47.9963C16.6838 47.9433 16.6203 47.8556 16.5603 47.7899C16.691 47.8237 16.7667 47.8645 16.8474 47.9732L16.8397 48.0068L16.754 47.9963Z" fill="url(#paint5_linear_374_5087)"/>
<path d="M16.754 47.9963L16.8397 48.0068L16.8474 47.9732C16.7667 47.8645 16.691 47.8237 16.5603 47.7899C16.6203 47.8556 16.6838 47.9433 16.754 47.9963Z" fill="url(#paint6_linear_374_5087)"/>
<path d="M22.121 51.1689C21.7857 50.954 21.4351 50.7627 21.1015 50.5481C20.7958 50.3515 20.5031 50.1217 20.2087 49.9079C20.0067 49.761 19.7925 49.6182 19.6051 49.453C19.6074 49.4619 19.6091 49.471 19.612 49.4797C19.6238 49.5156 19.6507 49.536 19.6793 49.5587C20.0081 49.8183 20.3621 50.0551 20.7008 50.3027C20.9277 50.4685 21.1418 50.6507 21.3719 50.8123C21.5189 50.9156 21.6693 51.0151 21.8287 51.0982C21.9334 51.1529 22.0034 51.206 22.121 51.1689Z" fill="url(#paint7_linear_374_5087)"/>
<path d="M14.0255 7.62656C14.6102 6.47169 14.3847 4.53219 14.1286 3.29959C14.0506 2.92383 13.9352 2.54305 13.8386 2.17022C13.7439 1.80489 13.6629 1.42774 13.5438 1.06968C13.5208 1.00066 13.4982 0.927284 13.4453 0.874972C13.3263 0.916752 13.2089 1.14192 13.1241 1.23393C13.0571 1.30648 12.9688 1.35796 12.9018 1.4352C12.6952 1.67318 12.5172 1.94935 12.331 2.20389C11.72 3.03945 11.1342 3.89305 10.6891 4.83157C10.5428 5.1399 10.3957 5.47149 10.305 5.80073C10.1523 6.35448 10.1031 7.10974 10.3018 7.65817C10.4419 8.0447 10.719 8.31723 11.0898 8.49055C11.6561 8.75518 12.4701 8.8907 13.067 8.66753C13.19 8.62157 13.3049 8.56047 13.4115 8.48423C13.4313 8.44858 13.4251 8.46283 13.4373 8.43167C13.5335 8.18454 13.8414 7.82463 14.0255 7.62656Z" fill="url(#paint8_linear_374_5087)"/>
<path d="M4.76504 23.0074C4.7596 23.0033 4.75425 22.999 4.74875 22.9949C3.58699 22.1388 2.21908 21.5692 0.872921 21.0742C0.715876 21.0165 0.326134 20.8361 0.169546 20.8572L0.145619 20.8925C0.105802 21.1924 0.855334 23.3357 1.01155 23.7298C1.18258 24.1612 1.38247 24.584 1.57594 25.0059C2.0151 25.7799 2.25998 26.2116 2.94086 26.8271C3.30875 27.1596 3.83359 27.4411 4.34116 27.4148C5.01353 27.38 5.48441 26.9337 5.90685 26.4599C6.18928 26.143 6.38262 25.755 6.35392 25.3234C6.30779 24.6309 5.86192 23.9632 5.36433 23.4995C5.1761 23.3241 4.95931 23.1771 4.76504 23.0074Z" fill="url(#paint9_linear_374_5087)"/>
<path d="M23.2684 4.08883L23.2437 4.07084C22.9056 4.06843 22.5693 4.02087 22.2313 4.00483C20.3624 3.91639 17.4704 3.7667 16.0462 5.16352C15.7574 5.4468 15.5513 5.82928 15.5541 6.24124C15.5579 6.77762 15.9024 7.60136 16.2854 7.97682C16.3632 8.06626 16.4356 8.15565 16.5343 8.22302C16.5414 8.2279 16.5484 8.23293 16.5555 8.2377C16.5598 8.24059 16.5642 8.24321 16.5686 8.24599C16.5786 8.25349 16.5883 8.26141 16.5987 8.26849C16.9558 8.51338 17.5164 8.54281 17.9258 8.4596C19.6581 8.10741 20.9034 6.79534 22.0452 5.55111C22.453 5.10667 22.9393 4.58551 23.2684 4.08883ZM16.5686 8.24599C16.5642 8.24321 16.5598 8.24059 16.5555 8.2377C16.5484 8.23293 16.5414 8.2279 16.5343 8.22302C16.4356 8.15565 16.3632 8.06626 16.2854 7.97682C16.3757 8.02297 16.6464 8.13071 16.6837 8.22498C16.6885 8.23728 16.6899 8.2506 16.693 8.26343C16.6545 8.2379 16.6424 8.22224 16.5954 8.21877L16.5686 8.24599Z" fill="url(#paint10_linear_374_5087)"/>
<path d="M16.5686 8.24599L16.5954 8.21877C16.6424 8.22224 16.6545 8.2379 16.693 8.26343C16.6899 8.2506 16.6885 8.23728 16.6837 8.22498C16.6464 8.13071 16.3757 8.02297 16.2854 7.97682C16.3632 8.06626 16.4356 8.15565 16.5343 8.22302C16.5414 8.2279 16.5484 8.23293 16.5555 8.2377C16.5598 8.24059 16.5642 8.24321 16.5686 8.24599Z" fill="url(#paint11_linear_374_5087)"/>
<path d="M7.44026 13.7476C8.0689 13.7133 8.6798 13.6326 9.12156 13.1369C9.54097 12.6661 9.59916 11.7381 9.55374 11.1346C9.44023 9.62319 8.47965 7.81688 7.71535 6.52101C7.58368 6.29788 7.44289 5.96015 7.25422 5.78696C7.23501 5.76924 7.21549 5.75728 7.19303 5.74415C7.14475 5.75426 7.14249 5.76527 7.11575 5.80475C6.90425 6.11673 6.70426 6.72756 6.5606 7.09086C6.13677 8.16289 5.74734 9.21916 5.55829 10.3632C5.51404 10.6305 5.46991 10.8985 5.46547 11.1703C5.45948 11.5386 5.51732 11.9553 5.59811 12.3158C5.70932 12.812 5.94356 13.2392 6.38312 13.5135C6.57579 13.6337 6.78636 13.6887 7.00726 13.7301C7.1518 13.7395 7.2954 13.7463 7.44026 13.7476ZM7.44026 13.7476C7.2954 13.7463 7.1518 13.7395 7.00726 13.7301C7.02125 13.7149 7.03354 13.7007 7.04995 13.6876C7.10683 13.6421 7.20307 13.6097 7.27616 13.62C7.36581 13.6326 7.39003 13.6802 7.44026 13.7476Z" fill="url(#paint12_linear_374_5087)"/>
<path d="M7.44026 13.7476C7.39003 13.6802 7.36581 13.6326 7.27616 13.62C7.20307 13.6097 7.10683 13.6421 7.04995 13.6876C7.03354 13.7007 7.02125 13.7149 7.00726 13.7301C7.1518 13.7395 7.2954 13.7463 7.44026 13.7476Z" fill="url(#paint13_linear_374_5087)"/>
<path d="M7.04136 19.394C7.29197 18.6484 7.10197 17.9157 6.75725 17.2281C6.13637 15.9897 5.08754 14.9571 4.05652 14.0497C3.91138 13.922 3.7561 13.8066 3.61065 13.679C3.42369 13.5149 2.97017 13.0692 2.76166 13.0141C2.7491 13.0107 2.73583 13.012 2.72286 13.011C2.61028 13.2936 2.62712 13.8282 2.61342 14.1392C2.54946 15.5864 2.51316 17.7019 3.08582 19.0381C3.29807 19.5334 3.57326 19.9416 3.98764 20.2871C4.11717 20.3952 4.25291 20.502 4.41233 20.5619C4.90719 20.748 5.57202 20.5603 6.02485 20.3427C6.22129 20.2483 6.3973 20.1358 6.57208 20.0066C6.79355 19.8258 6.92986 19.6573 7.04136 19.394ZM6.57208 20.0066L6.55382 19.9697C6.56674 19.8827 6.95181 19.4763 7.04136 19.394C6.92986 19.6573 6.79355 19.8258 6.57208 20.0066Z" fill="url(#paint14_linear_374_5087)"/>
<path d="M6.57208 20.0066C6.79355 19.8258 6.92986 19.6573 7.04136 19.394C6.95181 19.4763 6.56674 19.8827 6.55382 19.9697L6.57208 20.0066Z" fill="url(#paint15_linear_374_5087)"/>
<path d="M12.927 25.6415C12.9147 25.6054 12.9089 25.5951 12.9237 25.5594C12.9832 25.4152 13.1443 25.2534 13.2392 25.1251L13.9817 24.1066C14.1451 23.8813 14.3382 23.6488 14.4608 23.3989C14.4163 23.4165 14.379 23.4198 14.334 23.4022C14.2827 23.3822 14.2386 23.3998 14.1848 23.4076C14.1377 23.3652 14.139 23.3418 14.1236 23.2817C12.0696 23.398 8.85605 23.4348 7.39587 25.0774C7.13498 25.3709 6.9547 25.7751 6.98237 26.1747C7.02417 26.7781 7.45218 27.5434 7.91026 27.9355C8.24368 28.221 8.66413 28.3177 9.09469 28.2825C9.51752 28.248 9.91605 28.0963 10.2916 27.9092C11.1551 27.479 11.8118 26.8839 12.4555 26.1769C12.6157 26.0009 12.7629 25.814 12.927 25.6415Z" fill="url(#paint16_linear_374_5087)"/>
<path d="M15.3862 36.8087C15.5677 36.512 15.6864 36.1944 15.8153 35.8727C16.0411 35.3087 16.2407 34.7353 16.4141 34.1528C16.5874 33.5702 16.7338 32.9808 16.8533 32.3846C16.596 32.3372 14.0328 33.6104 13.6893 33.7974C13.3553 33.9791 13.0175 34.1803 12.7045 34.3963C11.9387 34.9248 11.2565 35.501 10.8344 36.3483C10.7427 36.5325 10.654 36.7235 10.6166 36.9276C10.5412 37.3401 10.6661 37.7555 10.905 38.0936C11.1938 38.5026 11.9149 39.0557 12.4175 39.1461C12.9058 39.234 13.3933 39.0834 13.7886 38.8024C13.9547 38.6843 14.1467 38.5389 14.2753 38.3796L14.2501 38.3358C14.3172 38.1774 14.4722 38.017 14.5763 37.8796C14.8368 37.5176 15.0879 37.1407 15.3862 36.8087Z" fill="url(#paint17_linear_374_5087)"/>
<path d="M18.8886 11.3517C18.6746 11.1531 18.471 10.9419 18.2533 10.7476C18.1123 10.6217 17.9583 10.5104 17.8163 10.3856C17.4497 10.0636 17.0933 9.75667 16.6793 9.49378C16.4761 9.3648 16.2583 9.25642 16.0453 9.14478C15.5283 8.86483 14.5396 8.62869 13.9729 8.79231C13.473 8.93668 13.1424 9.43566 12.9105 9.87427C12.6684 10.3321 12.5358 10.9126 12.6988 11.4189C12.8724 11.9583 13.3499 12.3646 13.843 12.6142C15.4345 13.4197 17.3317 13.3788 19.0616 13.2774C19.4396 13.2552 20.0979 13.237 20.454 13.1431C20.4635 13.085 20.4313 13.0437 20.3975 12.9962C20.0639 12.527 19.5816 12.0922 19.1853 11.6682C19.0884 11.5646 18.9754 11.4631 18.8886 11.3517ZM18.8886 11.3517C18.8597 11.3389 18.831 11.3248 18.8017 11.3127C18.7726 11.3007 18.7482 11.2931 18.7229 11.2741C18.5867 11.1717 18.4695 11.0352 18.3414 10.9217C18.2131 10.8083 18.0721 10.712 17.9461 10.5952L18.157 10.7548C18.038 10.6319 17.9015 10.5393 17.7735 10.428C17.715 10.3772 17.6649 10.3134 17.6014 10.2685C17.5132 10.2062 17.4094 10.167 17.3193 10.1032C17.1093 9.95457 16.905 9.79833 16.6939 9.65105C16.4673 9.49294 16.2409 9.34169 16.0453 9.14478C16.2583 9.25642 16.4761 9.3648 16.6793 9.49378C17.0933 9.75667 17.4497 10.0636 17.8163 10.3856C17.9583 10.5104 18.1123 10.6217 18.2533 10.7476C18.471 10.9419 18.6746 11.1531 18.8886 11.3517Z" fill="url(#paint18_linear_374_5087)"/>
<path d="M18.8886 11.3517C18.6746 11.1531 18.471 10.9419 18.2533 10.7476C18.1123 10.6217 17.9583 10.5104 17.8163 10.3856C17.4497 10.0636 17.0933 9.75667 16.6793 9.49378C16.4761 9.3648 16.2583 9.25642 16.0453 9.14478C16.2409 9.34169 16.4673 9.49294 16.6939 9.65105C16.905 9.79833 17.1093 9.95457 17.3193 10.1032C17.4094 10.167 17.5132 10.2062 17.6014 10.2685C17.6649 10.3134 17.715 10.3772 17.7735 10.428C17.9015 10.5393 18.038 10.6319 18.157 10.7548L17.9461 10.5952C18.0721 10.712 18.2131 10.8083 18.3414 10.9217C18.4695 11.0352 18.5867 11.1717 18.7229 11.2741C18.7482 11.2931 18.7726 11.3007 18.8017 11.3127C18.831 11.3248 18.8597 11.3389 18.8886 11.3517Z" fill="url(#paint19_linear_374_5087)"/>
<path d="M13.8176 30.937C14.1005 30.467 15.3833 27.6674 15.3051 27.3295C14.9384 27.3668 14.3833 27.5847 14.0172 27.7049C12.4801 28.2096 10.3034 28.9643 9.26789 30.2446C8.90627 30.6917 8.54293 31.1786 8.60761 31.7884C8.66612 32.3403 9.11142 32.8445 9.52731 33.1775C9.92576 33.4966 10.292 33.74 10.8232 33.6848C11.4657 33.618 12.1875 33.111 12.6097 32.6416C12.8631 32.4478 13.6784 31.2467 13.8176 30.937ZM12.6097 32.6416L12.5832 32.6022C12.6366 32.456 13.6541 31.111 13.8176 30.937C13.6784 31.2467 12.8631 32.4478 12.6097 32.6416Z" fill="url(#paint20_linear_374_5087)"/>
<path d="M12.6097 32.6416C12.8631 32.4478 13.6784 31.2467 13.8176 30.937C13.6541 31.111 12.6366 32.456 12.5832 32.6022L12.6097 32.6416Z" fill="url(#paint21_linear_374_5087)"/>
<path d="M5.91726 29.9895C5.59913 29.777 5.13057 29.6485 4.76277 29.5555C4.14761 29.4055 3.52641 29.2886 2.89919 29.2049C2.53016 29.1528 0.25951 28.9486 0.0366354 29.0815C0.0506845 29.3083 1.54782 31.1816 1.76556 31.4393C2.23029 31.9893 2.72763 32.4899 3.26046 32.9739C3.39867 33.0994 3.52906 33.2454 3.67928 33.3556C3.82178 33.4601 3.9938 33.5368 4.14941 33.6203C4.62497 33.8755 5.06565 34.1075 5.61586 34.1524C6.20021 34.2 6.51331 34.006 6.93638 33.6404C7.08456 33.5123 7.14334 33.368 7.23368 33.2011C7.43622 32.8268 7.61284 32.4926 7.63888 32.0567C7.67031 31.5317 7.42569 31.1607 7.09162 30.7805C6.75001 30.6865 6.19521 30.2316 5.91726 29.9895Z" fill="url(#paint22_linear_374_5087)"/>
<path d="M17.4625 16.2571C17.3206 16.1198 16.8945 15.7815 16.7085 15.7584C16.4853 15.6145 16.2698 15.4576 16.0455 15.3163C15.4954 14.9697 14.9088 14.6354 14.3204 14.3577C13.1801 13.7593 11.6411 13.1801 10.3598 13.553C9.89038 13.6896 9.5849 14.0451 9.36209 14.4662C9.13406 14.8973 9.08354 15.7445 9.23527 16.2086C9.39017 16.6823 9.77004 17.0045 10.2056 17.2271C11.5632 17.9209 13.9306 17.4071 15.3272 16.9836C15.8259 16.8324 16.3272 16.6663 16.8185 16.4929C17.0343 16.4167 17.2441 16.3263 17.4625 16.2571ZM16.7085 15.7584C16.6479 15.7752 16.6405 15.7856 16.5836 15.7539C16.3983 15.6507 16.2214 15.5008 16.0465 15.3787C16.1212 15.4617 16.2138 15.5305 16.304 15.5961L16.3007 15.6218L16.3255 15.6322L16.334 15.6224L16.3148 15.6046L16.3192 15.6295C16.1382 15.542 15.9862 15.4115 15.8161 15.306C15.533 15.1304 15.2061 14.9971 14.9545 14.7793C14.9041 14.7357 14.8465 14.6795 14.7834 14.6595L14.7816 14.7065C14.6046 14.6505 14.435 14.5018 14.3204 14.3577C14.9088 14.6354 15.4954 14.9697 16.0455 15.3163C16.2698 15.4576 16.4853 15.6145 16.7085 15.7584Z" fill="url(#paint23_linear_374_5087)"/>
<path d="M16.7085 15.7584C16.4853 15.6145 16.2698 15.4576 16.0455 15.3163C15.4954 14.9697 14.9088 14.6354 14.3204 14.3577C14.435 14.5018 14.6046 14.6505 14.7816 14.7065L14.7834 14.6595C14.8465 14.6795 14.9041 14.7357 14.9545 14.7793C15.2061 14.9971 15.533 15.1304 15.8161 15.306C15.9862 15.4115 16.1382 15.542 16.3192 15.6295L16.3148 15.6046L16.334 15.6224L16.3255 15.6322L16.3007 15.6218L16.304 15.5961C16.2138 15.5305 16.1212 15.4617 16.0465 15.3787C16.2214 15.5008 16.3983 15.6507 16.5836 15.7539C16.6405 15.7856 16.6479 15.7752 16.7085 15.7584Z" fill="url(#paint24_linear_374_5087)"/>
<path d="M7.73415 19.7006C7.66135 19.8135 7.59114 19.9376 7.53266 20.0588C7.31396 20.5119 7.46117 21.0986 7.6203 21.5485C7.79357 22.0382 8.05417 22.4488 8.53773 22.6792C9.10181 22.9481 10.1333 22.8189 10.7066 22.6168C12.2555 22.0708 13.5153 21.063 14.7561 20.022C14.9605 19.8505 15.4587 19.4649 15.5626 19.2437L15.5421 19.2184C14.0729 18.8963 12.6134 18.6425 11.1078 18.5856C10.8272 18.5959 10.5454 18.5925 10.2654 18.6137C9.36339 18.6822 8.42222 18.9477 7.78924 19.6192C7.76432 19.6456 7.75005 19.6684 7.73415 19.7006ZM11.1078 18.5856C11.1099 18.6407 11.1217 18.6625 11.0845 18.705C11.005 18.7163 10.9254 18.7164 10.8458 18.7052C10.8197 18.7012 10.7342 18.6667 10.7134 18.672C10.7134 18.672 10.6586 18.7099 10.6549 18.7116C10.5787 18.7489 10.3418 18.7168 10.2586 18.6985C10.2346 18.6932 10.245 18.693 10.2228 18.6989L10.2238 18.7229C10.0858 18.7993 9.65882 18.8024 9.47717 18.8455C9.21121 18.9087 8.96423 19.0207 8.70176 19.0915C8.54805 19.1331 8.42422 19.2718 8.26802 19.3243C8.09519 19.3824 7.91004 19.7065 7.73415 19.7006C7.75005 19.6684 7.76432 19.6456 7.78924 19.6192C8.42222 18.9477 9.36339 18.6822 10.2654 18.6137C10.5454 18.5925 10.8272 18.5959 11.1078 18.5856Z" fill="url(#paint25_linear_374_5087)"/>
<path d="M11.1078 18.5856C10.8272 18.5959 10.5454 18.5925 10.2654 18.6137C9.36339 18.6822 8.42222 18.9477 7.78924 19.6192C7.76432 19.6456 7.75005 19.6684 7.73415 19.7006C7.91004 19.7065 8.09519 19.3824 8.26802 19.3243C8.42422 19.2718 8.54805 19.1331 8.70176 19.0915C8.96423 19.0207 9.21121 18.9087 9.47717 18.8455C9.65882 18.8024 10.0858 18.7993 10.2238 18.7229L10.2228 18.6989C10.245 18.693 10.2346 18.6932 10.2586 18.6985C10.3418 18.7168 10.5787 18.7489 10.6549 18.7116C10.6586 18.7099 10.7134 18.672 10.7134 18.672C10.7342 18.6667 10.8197 18.7012 10.8458 18.7052C10.9254 18.7164 11.005 18.7163 11.0845 18.705C11.1217 18.6625 11.1099 18.6407 11.1078 18.5856Z" fill="url(#paint26_linear_374_5087)"/>
<path d="M9.94584 39.3817C10.0627 39.087 10.1581 38.7663 10.1769 38.4476C10.2031 38.005 10.085 37.5837 9.78388 37.2481C9.64925 37.0982 9.47537 36.9771 9.30778 36.8671C8.35925 36.2451 7.26945 36.1796 6.17746 36.1107C5.83214 36.1353 5.48405 36.1303 5.13783 36.1539C4.38841 36.2049 3.65742 36.2952 2.91515 36.4057C2.6993 36.4377 2.38938 36.4496 2.19407 36.5426L2.16516 36.5801C2.17404 36.6321 2.18336 36.6339 2.22308 36.6704C2.23244 36.6858 2.23756 36.6953 2.24782 36.7094C2.47027 37.0156 2.9756 37.4216 3.27318 37.6876C3.46026 37.8548 3.63864 38.0345 3.83129 38.1948C3.98528 38.3231 4.15489 38.4321 4.30914 38.5599C4.49038 38.7101 4.64921 38.8839 4.83499 39.0299C5.11359 39.249 5.40028 39.4169 5.70334 39.597C6.3862 40.0028 7.00782 40.335 7.80467 40.4627C8.28659 40.5398 8.90652 40.5512 9.31588 40.2504C9.39302 40.1937 9.58097 40.0449 9.59347 39.9595C9.72568 39.7748 9.85333 39.59 9.94584 39.3817ZM6.17746 36.1107L6.15517 36.1787L6.17477 36.1461L6.14089 36.2202C6.09251 36.2176 6.12025 36.2221 6.07588 36.2082C6.0349 36.1954 6.05384 36.1976 6.00876 36.2057L6.00253 36.2515C5.90678 36.2477 5.89065 36.164 5.80378 36.2369L5.81728 36.2124C5.68139 36.2375 5.49982 36.2818 5.37234 36.2118L5.39157 36.2316L5.36349 36.2261L5.34744 36.2577C5.16649 36.2969 5.02816 36.277 4.85005 36.2861C4.71427 36.2931 4.58077 36.3226 4.44535 36.3335C4.30621 36.3447 4.16559 36.3385 4.02673 36.3535C3.64843 36.3944 3.27346 36.5001 2.89534 36.5351C2.69079 36.554 2.54175 36.5031 2.33962 36.6136C2.33169 36.642 2.32416 36.6707 2.31702 36.6994C2.28596 36.6886 2.25549 36.6759 2.22308 36.6704C2.18336 36.6339 2.17404 36.6321 2.16516 36.5801L2.19407 36.5426C2.38938 36.4496 2.6993 36.4377 2.91515 36.4057C3.65742 36.2952 4.38841 36.2049 5.13783 36.1539C5.48405 36.1303 5.83214 36.1353 6.17746 36.1107ZM9.59347 39.9595C9.57933 39.9048 9.57682 39.8872 9.59882 39.8355C9.6671 39.6753 9.78115 39.4478 9.94584 39.3817C9.85333 39.59 9.72568 39.7748 9.59347 39.9595Z" fill="url(#paint27_linear_374_5087)"/>
<path d="M9.59347 39.9595C9.72568 39.7748 9.85333 39.59 9.94584 39.3817C9.78115 39.4478 9.6671 39.6753 9.59882 39.8355C9.57682 39.8872 9.57933 39.9048 9.59347 39.9595Z" fill="url(#paint28_linear_374_5087)"/>
<path d="M6.17746 36.1107C5.83214 36.1353 5.48405 36.1303 5.13783 36.1539C4.38841 36.2049 3.65742 36.2952 2.91515 36.4057C2.6993 36.4377 2.38938 36.4496 2.19407 36.5426L2.16516 36.5801C2.17404 36.6321 2.18336 36.6339 2.22308 36.6704C2.25549 36.6759 2.28596 36.6886 2.31702 36.6994C2.32416 36.6707 2.33169 36.642 2.33962 36.6136C2.54175 36.5031 2.69079 36.554 2.89534 36.5351C3.27346 36.5001 3.64843 36.3944 4.02673 36.3535C4.16559 36.3385 4.30621 36.3447 4.44535 36.3335C4.58077 36.3226 4.71427 36.2931 4.85005 36.2861C5.02816 36.277 5.16649 36.2969 5.34744 36.2577L5.36349 36.2261L5.39157 36.2316L5.37234 36.2118C5.49982 36.2818 5.68139 36.2375 5.81728 36.2124L5.80378 36.2369C5.89065 36.164 5.90678 36.2477 6.00253 36.2515L6.00876 36.2057C6.05384 36.1976 6.0349 36.1954 6.07588 36.2082C6.12025 36.2221 6.09251 36.2176 6.14089 36.2202L6.17477 36.1461L6.15517 36.1787L6.17746 36.1107Z" fill="url(#paint29_linear_374_5087)"/>
<defs>
<linearGradient id="paint0_linear_374_5087" x1="29.6917" y1="8.75565" x2="6.18032" y2="41.1163" gradientUnits="userSpaceOnUse">
<stop offset="0.15" stop-color="#4DD3FF"/>
<stop offset="1" stop-color="#1B3C72"/>
</linearGradient>
<linearGradient id="paint1_linear_374_5087" x1="29.6917" y1="8.75565" x2="6.18032" y2="41.1163" gradientUnits="userSpaceOnUse">
<stop offset="0.15" stop-color="#4DD3FF"/>
<stop offset="1" stop-color="#1B3C72"/>
</linearGradient>
<linearGradient id="paint2_linear_374_5087" x1="29.6917" y1="8.75565" x2="6.18032" y2="41.1163" gradientUnits="userSpaceOnUse">
<stop offset="0.15" stop-color="#4DD3FF"/>
<stop offset="1" stop-color="#1B3C72"/>
</linearGradient>
<linearGradient id="paint3_linear_374_5087" x1="29.6917" y1="8.75565" x2="6.18032" y2="41.1163" gradientUnits="userSpaceOnUse">
<stop offset="0.15" stop-color="#4DD3FF"/>
<stop offset="1" stop-color="#1B3C72"/>
</linearGradient>
<linearGradient id="paint4_linear_374_5087" x1="29.6917" y1="8.75565" x2="6.18032" y2="41.1163" gradientUnits="userSpaceOnUse">
<stop offset="0.15" stop-color="#4DD3FF"/>
<stop offset="1" stop-color="#1B3C72"/>
</linearGradient>
<linearGradient id="paint5_linear_374_5087" x1="29.6917" y1="8.75565" x2="6.18032" y2="41.1163" gradientUnits="userSpaceOnUse">
<stop offset="0.15" stop-color="#4DD3FF"/>
<stop offset="1" stop-color="#1B3C72"/>
</linearGradient>
<linearGradient id="paint6_linear_374_5087" x1="29.6917" y1="8.75565" x2="6.18032" y2="41.1163" gradientUnits="userSpaceOnUse">
<stop offset="0.15" stop-color="#4DD3FF"/>
<stop offset="1" stop-color="#1B3C72"/>
</linearGradient>
<linearGradient id="paint7_linear_374_5087" x1="29.6917" y1="8.75565" x2="6.18032" y2="41.1163" gradientUnits="userSpaceOnUse">
<stop offset="0.15" stop-color="#4DD3FF"/>
<stop offset="1" stop-color="#1B3C72"/>
</linearGradient>
<linearGradient id="paint8_linear_374_5087" x1="29.6917" y1="8.75565" x2="6.18032" y2="41.1163" gradientUnits="userSpaceOnUse">
<stop offset="0.15" stop-color="#4DD3FF"/>
<stop offset="1" stop-color="#1B3C72"/>
</linearGradient>
<linearGradient id="paint9_linear_374_5087" x1="29.6917" y1="8.75565" x2="6.18032" y2="41.1163" gradientUnits="userSpaceOnUse">
<stop offset="0.15" stop-color="#4DD3FF"/>
<stop offset="1" stop-color="#1B3C72"/>
</linearGradient>
<linearGradient id="paint10_linear_374_5087" x1="29.6917" y1="8.75565" x2="6.18032" y2="41.1163" gradientUnits="userSpaceOnUse">
<stop offset="0.15" stop-color="#4DD3FF"/>
<stop offset="1" stop-color="#1B3C72"/>
</linearGradient>
<linearGradient id="paint11_linear_374_5087" x1="29.6917" y1="8.75565" x2="6.18032" y2="41.1163" gradientUnits="userSpaceOnUse">
<stop offset="0.15" stop-color="#4DD3FF"/>
<stop offset="1" stop-color="#1B3C72"/>
</linearGradient>
<linearGradient id="paint12_linear_374_5087" x1="29.6917" y1="8.75565" x2="6.18032" y2="41.1163" gradientUnits="userSpaceOnUse">
<stop offset="0.15" stop-color="#4DD3FF"/>
<stop offset="1" stop-color="#1B3C72"/>
</linearGradient>
<linearGradient id="paint13_linear_374_5087" x1="29.6917" y1="8.75565" x2="6.18032" y2="41.1163" gradientUnits="userSpaceOnUse">
<stop offset="0.15" stop-color="#4DD3FF"/>
<stop offset="1" stop-color="#1B3C72"/>
</linearGradient>
<linearGradient id="paint14_linear_374_5087" x1="29.6917" y1="8.75565" x2="6.18032" y2="41.1163" gradientUnits="userSpaceOnUse">
<stop offset="0.15" stop-color="#4DD3FF"/>
<stop offset="1" stop-color="#1B3C72"/>
</linearGradient>
<linearGradient id="paint15_linear_374_5087" x1="29.6917" y1="8.75565" x2="6.18032" y2="41.1163" gradientUnits="userSpaceOnUse">
<stop offset="0.15" stop-color="#4DD3FF"/>
<stop offset="1" stop-color="#1B3C72"/>
</linearGradient>
<linearGradient id="paint16_linear_374_5087" x1="29.6917" y1="8.75565" x2="6.18032" y2="41.1163" gradientUnits="userSpaceOnUse">
<stop offset="0.15" stop-color="#4DD3FF"/>
<stop offset="1" stop-color="#1B3C72"/>
</linearGradient>
<linearGradient id="paint17_linear_374_5087" x1="29.6917" y1="8.75565" x2="6.18032" y2="41.1163" gradientUnits="userSpaceOnUse">
<stop offset="0.15" stop-color="#4DD3FF"/>
<stop offset="1" stop-color="#1B3C72"/>
</linearGradient>
<linearGradient id="paint18_linear_374_5087" x1="29.6917" y1="8.75565" x2="6.18032" y2="41.1163" gradientUnits="userSpaceOnUse">
<stop offset="0.15" stop-color="#4DD3FF"/>
<stop offset="1" stop-color="#1B3C72"/>
</linearGradient>
<linearGradient id="paint19_linear_374_5087" x1="29.6917" y1="8.75565" x2="6.18032" y2="41.1163" gradientUnits="userSpaceOnUse">
<stop offset="0.15" stop-color="#4DD3FF"/>
<stop offset="1" stop-color="#1B3C72"/>
</linearGradient>
<linearGradient id="paint20_linear_374_5087" x1="29.6917" y1="8.75565" x2="6.18032" y2="41.1163" gradientUnits="userSpaceOnUse">
<stop offset="0.15" stop-color="#4DD3FF"/>
<stop offset="1" stop-color="#1B3C72"/>
</linearGradient>
<linearGradient id="paint21_linear_374_5087" x1="29.6917" y1="8.75565" x2="6.18032" y2="41.1163" gradientUnits="userSpaceOnUse">
<stop offset="0.15" stop-color="#4DD3FF"/>
<stop offset="1" stop-color="#1B3C72"/>
</linearGradient>
<linearGradient id="paint22_linear_374_5087" x1="29.6917" y1="8.75565" x2="6.18032" y2="41.1163" gradientUnits="userSpaceOnUse">
<stop offset="0.15" stop-color="#4DD3FF"/>
<stop offset="1" stop-color="#1B3C72"/>
</linearGradient>
<linearGradient id="paint23_linear_374_5087" x1="29.6917" y1="8.75565" x2="6.18032" y2="41.1163" gradientUnits="userSpaceOnUse">
<stop offset="0.15" stop-color="#4DD3FF"/>
<stop offset="1" stop-color="#1B3C72"/>
</linearGradient>
<linearGradient id="paint24_linear_374_5087" x1="29.6917" y1="8.75565" x2="6.18032" y2="41.1163" gradientUnits="userSpaceOnUse">
<stop offset="0.15" stop-color="#4DD3FF"/>
<stop offset="1" stop-color="#1B3C72"/>
</linearGradient>
<linearGradient id="paint25_linear_374_5087" x1="29.6917" y1="8.75565" x2="6.18032" y2="41.1163" gradientUnits="userSpaceOnUse">
<stop offset="0.15" stop-color="#4DD3FF"/>
<stop offset="1" stop-color="#1B3C72"/>
</linearGradient>
<linearGradient id="paint26_linear_374_5087" x1="29.6917" y1="8.75565" x2="6.18032" y2="41.1163" gradientUnits="userSpaceOnUse">
<stop offset="0.15" stop-color="#4DD3FF"/>
<stop offset="1" stop-color="#1B3C72"/>
</linearGradient>
<linearGradient id="paint27_linear_374_5087" x1="29.6917" y1="8.75565" x2="6.18032" y2="41.1163" gradientUnits="userSpaceOnUse">
<stop offset="0.15" stop-color="#4DD3FF"/>
<stop offset="1" stop-color="#1B3C72"/>
</linearGradient>
<linearGradient id="paint28_linear_374_5087" x1="29.6917" y1="8.75565" x2="6.18032" y2="41.1163" gradientUnits="userSpaceOnUse">
<stop offset="0.15" stop-color="#4DD3FF"/>
<stop offset="1" stop-color="#1B3C72"/>
</linearGradient>
<linearGradient id="paint29_linear_374_5087" x1="29.6917" y1="8.75565" x2="6.18032" y2="41.1163" gradientUnits="userSpaceOnUse">
<stop offset="0.15" stop-color="#4DD3FF"/>
<stop offset="1" stop-color="#1B3C72"/>
</linearGradient>
</defs>
</svg>
