<svg width="24" height="53" viewBox="0 0 24 53" fill="none" xmlns="http://www.w3.org/2000/svg">
<path d="M15.1775 37.901L15.0773 37.88C14.9732 38.0174 14.8182 38.1778 14.7511 38.3361L14.7763 38.38C14.9329 38.2725 15.0626 38.0521 15.1775 37.901Z" fill="url(#paint0_linear_733_2673)"/>
<path d="M14.5265 7.62693C14.3424 7.825 14.0345 8.18491 13.9382 8.43204C13.9261 8.4632 13.9323 8.44895 13.9125 8.4846C14.1844 8.23719 14.383 7.96575 14.5265 7.62693Z" fill="url(#paint1_linear_733_2673)"/>
<path d="M15.1775 37.901C15.4294 37.5485 15.7053 37.2041 15.8871 36.809C15.5889 37.141 15.3377 37.518 15.0773 37.88L15.1775 37.901Z" fill="url(#paint2_linear_733_2673)"/>
<path d="M7.5926 30.7809C7.26367 30.447 6.85008 30.1742 6.41824 29.9898C6.69618 30.232 7.25098 30.6869 7.5926 30.7809Z" fill="url(#paint3_linear_733_2673)"/>
<path d="M15.1632 23.2985C14.9844 23.2675 14.805 23.3056 14.6245 23.2821C14.6399 23.3421 14.6387 23.3656 14.6858 23.408C14.7395 23.4002 14.7837 23.3825 14.8349 23.4026C14.88 23.4202 14.9173 23.4168 14.9618 23.3992C14.8392 23.6491 14.6461 23.8816 14.4827 24.107L13.7402 25.1255C13.6452 25.2537 13.4842 25.4155 13.4246 25.5598C13.4099 25.5954 13.4156 25.6058 13.4279 25.6418C13.6544 25.4672 13.9599 24.9728 14.142 24.7222C14.4851 24.2501 14.8342 23.7805 15.1632 23.2985Z" fill="url(#paint4_linear_733_2673)"/>
<path d="M20.1061 49.4534C19.5451 48.9728 18.9976 48.4773 18.4635 47.967C17.9294 47.4568 17.4095 46.9324 16.904 46.394C16.3984 45.8555 15.9079 45.3038 15.4324 44.7389C14.9568 44.1739 14.497 43.5965 14.053 43.0066C13.6057 42.4257 13.1697 41.8366 12.7448 41.2393C12.6489 41.1052 12.1489 40.3273 12.0691 40.2893C12.0492 40.3409 12.0765 40.3861 12.0985 40.4353C12.251 40.7768 12.3842 41.137 12.5479 41.4721C12.6326 41.6454 12.7536 41.8129 12.8456 41.9854C12.9642 42.2077 13.0703 42.4384 13.1939 42.6576C13.3249 42.8897 13.4756 43.1133 13.6164 43.3396C13.9529 43.8804 14.2996 44.4232 14.6767 44.9371C15.0899 45.5001 15.54 46.0431 15.9878 46.5789C16.2505 46.8931 16.5126 47.2063 16.7917 47.5063C16.8775 47.5985 16.9651 47.7098 17.0613 47.7903C17.1213 47.8559 17.1848 47.9437 17.255 47.9967C17.4632 48.249 17.7166 48.479 17.9479 48.7108C18.6045 49.3685 19.294 50.0146 19.9929 50.6277C20.362 50.9513 20.7855 51.2285 21.1118 51.6011L22.2162 52.4035C22.4965 52.4063 22.8597 52.3417 23.1202 52.2427C23.2849 52.1801 23.4824 52.0773 23.55 51.9045C23.578 51.833 23.5922 51.6969 23.5602 51.6285C23.5214 51.5928 22.6829 51.1779 22.622 51.1693C22.2867 50.9543 21.9361 50.763 21.6025 50.5484C21.2968 50.3519 21.0041 50.1221 20.7097 49.9082C20.5077 49.7613 20.2935 49.6186 20.1061 49.4534ZM22.622 51.1693C22.5043 51.2064 22.4344 51.1532 22.3297 51.0986C22.1703 51.0154 22.0199 50.9159 21.8729 50.8126C21.6428 50.6511 21.4286 50.4689 21.2018 50.3031C20.8631 50.0555 20.5091 49.8187 20.1803 49.559C20.1517 49.5364 20.1248 49.516 20.113 49.4801C20.1101 49.4713 20.1084 49.4623 20.1061 49.4534C20.2935 49.6186 20.5077 49.7613 20.7097 49.9082C21.0041 50.1221 21.2968 50.3519 21.6025 50.5484C21.9361 50.763 22.2867 50.9543 22.622 51.1693ZM17.255 47.9967C17.1848 47.9437 17.1213 47.8559 17.0613 47.7903C17.192 47.8241 17.2677 47.8649 17.3484 47.9736L17.3407 48.0071L17.255 47.9967Z" fill="url(#paint5_linear_733_2673)"/>
<path d="M17.255 47.9967L17.3407 48.0071L17.3484 47.9736C17.2677 47.8649 17.192 47.8241 17.0613 47.7903C17.1213 47.8559 17.1848 47.9437 17.255 47.9967Z" fill="url(#paint6_linear_733_2673)"/>
<path d="M22.622 51.1693C22.2867 50.9543 21.9361 50.763 21.6025 50.5484C21.2968 50.3519 21.0041 50.1221 20.7097 49.9082C20.5077 49.7613 20.2935 49.6186 20.1061 49.4534C20.1084 49.4623 20.1101 49.4713 20.113 49.4801C20.1248 49.516 20.1517 49.5364 20.1803 49.559C20.5091 49.8187 20.8631 50.0555 21.2018 50.3031C21.4286 50.4689 21.6428 50.6511 21.8729 50.8126C22.0199 50.9159 22.1703 51.0154 22.3297 51.0986C22.4344 51.1532 22.5043 51.2064 22.622 51.1693Z" fill="url(#paint7_linear_733_2673)"/>
<path d="M14.5265 7.62693C15.1112 6.47206 14.8857 4.53255 14.6296 3.29996C14.5516 2.92419 14.4362 2.54342 14.3396 2.17058C14.2449 1.80525 14.1639 1.42811 14.0448 1.07005C14.0218 1.00103 13.9991 0.92765 13.9463 0.875338C13.8273 0.917119 13.7099 1.14228 13.625 1.23429C13.5581 1.30685 13.4698 1.35832 13.4028 1.43557C13.1962 1.67355 13.0182 1.94971 12.832 2.20426C12.221 3.03981 11.6352 3.89342 11.19 4.83193C11.0438 5.14027 10.8966 5.47185 10.8059 5.8011C10.6532 6.35484 10.6041 7.11011 10.8028 7.65853C10.9429 8.04507 11.22 8.31759 11.5908 8.49092C12.1571 8.75555 12.9711 8.89106 13.568 8.6679C13.691 8.62194 13.8058 8.56084 13.9125 8.4846C13.9323 8.44895 13.9261 8.4632 13.9382 8.43204C14.0345 8.18491 14.3424 7.825 14.5265 7.62693Z" fill="url(#paint8_linear_733_2673)"/>
<path d="M5.26602 23.0078C5.26058 23.0037 5.25522 22.9994 5.24973 22.9953C4.08796 22.1392 2.72006 21.5695 1.3739 21.0745C1.21685 21.0168 0.82711 20.8365 0.670523 20.8575L0.646596 20.8929C0.606777 21.1928 1.35631 23.336 1.51253 23.7301C1.68356 24.1616 1.88344 24.5843 2.07691 25.0063C2.51608 25.7802 2.76095 26.212 3.44183 26.8275C3.80972 27.16 4.33457 27.4414 4.84214 27.4152C5.5145 27.3804 5.98538 26.9341 6.40783 26.4603C6.69025 26.1434 6.88359 25.7554 6.8549 25.3237C6.80877 24.6312 6.36289 23.9636 5.86531 23.4999C5.67707 23.3245 5.46029 23.1774 5.26602 23.0078Z" fill="url(#paint9_linear_733_2673)"/>
<path d="M23.7694 4.0892L23.7446 4.07121C23.4066 4.0688 23.0703 4.02123 22.7323 4.0052C20.8634 3.91675 17.9714 3.76706 16.5472 5.16389C16.2584 5.44716 16.0523 5.82965 16.0551 6.24161C16.0589 6.77798 16.4034 7.60172 16.7863 7.97718C16.8642 8.06663 16.9366 8.15601 17.0352 8.22339C17.0424 8.22827 17.0493 8.2333 17.0565 8.23807C17.0608 8.24096 17.0652 8.24358 17.0696 8.24636C17.0796 8.25386 17.0893 8.26178 17.0996 8.26886C17.4568 8.51374 18.0174 8.54318 18.4268 8.45997C20.1591 8.10777 21.4044 6.7957 22.5461 5.55147C22.9539 5.10703 23.4402 4.58588 23.7694 4.0892ZM17.0696 8.24636C17.0652 8.24358 17.0608 8.24096 17.0565 8.23807C17.0493 8.2333 17.0424 8.22827 17.0352 8.22339C16.9366 8.15601 16.8642 8.06663 16.7863 7.97718C16.8767 8.02334 17.1474 8.13108 17.1846 8.22535C17.1895 8.23764 17.1908 8.25097 17.194 8.26379C17.1555 8.23826 17.1434 8.22261 17.0964 8.21913L17.0696 8.24636Z" fill="url(#paint10_linear_733_2673)"/>
<path d="M17.0696 8.24636L17.0964 8.21913C17.1434 8.22261 17.1555 8.23826 17.194 8.26379C17.1908 8.25097 17.1895 8.23764 17.1846 8.22535C17.1474 8.13108 16.8767 8.02334 16.7863 7.97718C16.8642 8.06663 16.9366 8.15601 17.0352 8.22339C17.0424 8.22827 17.0493 8.2333 17.0565 8.23807C17.0608 8.24096 17.0652 8.24358 17.0696 8.24636Z" fill="url(#paint11_linear_733_2673)"/>
<path d="M7.94124 13.748C8.56988 13.7136 9.18078 13.6329 9.62253 13.1372C10.0419 12.6665 10.1001 11.7385 10.0547 11.1349C9.94121 9.62356 8.98062 7.81725 8.21633 6.52137C8.08466 6.29824 7.94386 5.96052 7.7552 5.78733C7.73598 5.7696 7.71647 5.75764 7.69401 5.74452C7.64572 5.75463 7.64346 5.76563 7.61672 5.80511C7.40522 6.1171 7.20524 6.72793 7.06157 7.09123C6.63775 8.16325 6.24832 9.21952 6.05927 10.3635C6.01502 10.6308 5.97089 10.8989 5.96645 11.1707C5.96046 11.539 6.01829 11.9557 6.09909 12.3162C6.2103 12.8124 6.44454 13.2396 6.88409 13.5138C7.07677 13.6341 7.28734 13.6891 7.50824 13.7305C7.65278 13.7398 7.79637 13.7467 7.94124 13.748ZM7.94124 13.748C7.79637 13.7467 7.65278 13.7398 7.50824 13.7305C7.52222 13.7153 7.53451 13.701 7.55093 13.6879C7.6078 13.6425 7.70405 13.6101 7.77714 13.6203C7.86678 13.6329 7.89101 13.6806 7.94124 13.748Z" fill="url(#paint12_linear_733_2673)"/>
<path d="M7.94124 13.748C7.89101 13.6806 7.86678 13.6329 7.77714 13.6203C7.70405 13.6101 7.6078 13.6425 7.55093 13.6879C7.53451 13.701 7.52222 13.7153 7.50824 13.7305C7.65278 13.7398 7.79637 13.7467 7.94124 13.748Z" fill="url(#paint13_linear_733_2673)"/>
<path d="M7.54234 19.3944C7.79295 18.6488 7.60295 17.9161 7.25823 17.2285C6.63735 15.9901 5.58851 14.9575 4.5575 14.0501C4.41236 13.9224 4.25708 13.8069 4.11163 13.6793C3.92467 13.5153 3.47115 13.0695 3.26263 13.0144C3.25008 13.0111 3.23681 13.0124 3.22384 13.0113C3.11125 13.294 3.12809 13.8286 3.1144 14.1396C3.05043 15.5867 3.01414 17.7022 3.58679 19.0385C3.79905 19.5338 4.07423 19.9419 4.48861 20.2875C4.61815 20.3955 4.75389 20.5024 4.91331 20.5623C5.40816 20.7484 6.073 20.5606 6.52583 20.3431C6.72226 20.2487 6.89828 20.1361 7.07306 20.0069C7.29453 19.8262 7.43084 19.6577 7.54234 19.3944ZM7.07306 20.0069L7.0548 19.9701C7.06772 19.8831 7.45278 19.4767 7.54234 19.3944C7.43084 19.6577 7.29453 19.8262 7.07306 20.0069Z" fill="url(#paint14_linear_733_2673)"/>
<path d="M7.07306 20.0069C7.29453 19.8262 7.43084 19.6577 7.54234 19.3944C7.45278 19.4767 7.06772 19.8831 7.0548 19.9701L7.07306 20.0069Z" fill="url(#paint15_linear_733_2673)"/>
<path d="M13.4279 25.6418C13.4156 25.6058 13.4099 25.5954 13.4246 25.5598C13.4842 25.4155 13.6452 25.2537 13.7402 25.1255L14.4827 24.107C14.6461 23.8816 14.8392 23.6491 14.9618 23.3992C14.9173 23.4168 14.88 23.4202 14.8349 23.4026C14.7837 23.3825 14.7395 23.4002 14.6858 23.408C14.6387 23.3656 14.6399 23.3421 14.6245 23.2821C12.5706 23.3983 9.35703 23.4352 7.89684 25.0778C7.63596 25.3713 7.45568 25.7755 7.48334 26.1751C7.52515 26.7785 7.95315 27.5438 8.41124 27.9359C8.74466 28.2213 9.16511 28.318 9.59566 28.2829C10.0185 28.2484 10.417 28.0967 10.7926 27.9095C11.656 27.4794 12.3128 26.8843 12.9564 26.1773C13.1167 26.0013 13.2639 25.8144 13.4279 25.6418Z" fill="url(#paint16_linear_733_2673)"/>
<path d="M15.8871 36.809C16.0687 36.5124 16.1874 36.1948 16.3163 35.8731C16.5421 35.309 16.7417 34.7357 16.9151 34.1531C17.0884 33.5706 17.2348 32.9812 17.3543 32.385C17.097 32.3376 14.5337 33.6108 14.1903 33.7977C13.8563 33.9795 13.5185 34.1807 13.2055 34.3966C12.4397 34.9252 11.7575 35.5013 11.3354 36.3486C11.2436 36.5329 11.155 36.7239 11.1176 36.928C11.0422 37.3405 11.1671 37.7558 11.4059 38.094C11.6948 38.503 12.4159 39.056 12.9185 39.1465C13.4068 39.2343 13.8943 39.0838 14.2896 38.8027C14.4557 38.6846 14.6477 38.5392 14.7763 38.38L14.7511 38.3361C14.8182 38.1778 14.9732 38.0174 15.0773 37.88C15.3377 37.518 15.5889 37.141 15.8871 36.809Z" fill="url(#paint17_linear_733_2673)"/>
<path d="M19.3896 11.3521C19.1755 11.1535 18.972 10.9423 18.7543 10.7479C18.6133 10.622 18.4593 10.5107 18.3172 10.386C17.9507 10.064 17.5943 9.75704 17.1802 9.49415C16.9771 9.36517 16.7593 9.25678 16.5462 9.14515C16.0293 8.86519 15.0405 8.62906 14.4738 8.79268C13.9739 8.93704 13.6434 9.43602 13.4115 9.87464C13.1693 10.3325 13.0368 10.9129 13.1998 11.4193C13.3733 11.9587 13.8509 12.3649 14.344 12.6145C15.9355 13.4201 17.8327 13.3792 19.5625 13.2777C19.9406 13.2556 20.5989 13.2374 20.955 13.1435C20.9645 13.0853 20.9322 13.0441 20.8984 12.9966C20.5649 12.5273 20.0825 12.0926 19.6863 11.6685C19.5894 11.5649 19.4763 11.4635 19.3896 11.3521ZM19.3896 11.3521C19.3607 11.3393 19.332 11.3251 19.3027 11.3131C19.2736 11.301 19.2492 11.2935 19.2238 11.2745C19.0876 11.1721 18.9705 11.0356 18.8423 10.9221C18.7141 10.8087 18.5731 10.7124 18.4471 10.5956L18.6579 10.7552C18.539 10.6323 18.4025 10.5397 18.2745 10.4283C18.216 10.3775 18.1659 10.3138 18.1024 10.2689C18.0142 10.2066 17.9103 10.1673 17.8203 10.1036C17.6103 9.95494 17.406 9.79869 17.1949 9.65141C16.9683 9.4933 16.7419 9.34205 16.5462 9.14515C16.7593 9.25678 16.9771 9.36517 17.1802 9.49415C17.5943 9.75704 17.9507 10.064 18.3172 10.386C18.4593 10.5107 18.6133 10.622 18.7543 10.7479C18.972 10.9423 19.1755 11.1535 19.3896 11.3521Z" fill="url(#paint18_linear_733_2673)"/>
<path d="M19.3896 11.3521C19.1755 11.1535 18.972 10.9423 18.7543 10.7479C18.6133 10.622 18.4593 10.5107 18.3172 10.386C17.9507 10.064 17.5943 9.75704 17.1802 9.49415C16.9771 9.36517 16.7593 9.25678 16.5462 9.14515C16.7419 9.34205 16.9683 9.4933 17.1949 9.65141C17.406 9.79869 17.6103 9.95494 17.8203 10.1036C17.9103 10.1673 18.0142 10.2066 18.1024 10.2689C18.1659 10.3138 18.216 10.3775 18.2745 10.4283C18.4025 10.5397 18.539 10.6323 18.6579 10.7552L18.4471 10.5956C18.5731 10.7124 18.7141 10.8087 18.8423 10.9221C18.9705 11.0356 19.0876 11.1721 19.2238 11.2745C19.2492 11.2935 19.2736 11.301 19.3027 11.3131C19.332 11.3251 19.3607 11.3393 19.3896 11.3521Z" fill="url(#paint19_linear_733_2673)"/>
<path d="M14.3185 30.9374C14.6015 30.4674 15.8843 27.6678 15.8061 27.3299C15.4393 27.3672 14.8843 27.5851 14.5182 27.7052C12.981 28.2099 10.8044 28.9647 9.76887 30.245C9.40724 30.6921 9.04391 31.1789 9.10859 31.7887C9.1671 32.3406 9.61239 32.8448 10.0283 33.1779C10.4267 33.497 10.793 33.7404 11.3241 33.6851C11.9667 33.6183 12.6885 33.1113 13.1107 32.642C13.364 32.4482 14.1793 31.247 14.3185 30.9374ZM13.1107 32.642L13.0842 32.6025C13.1376 32.4564 14.1551 31.1113 14.3185 30.9374C14.1793 31.247 13.364 32.4482 13.1107 32.642Z" fill="url(#paint20_linear_733_2673)"/>
<path d="M13.1107 32.642C13.364 32.4482 14.1793 31.247 14.3185 30.9374C14.1551 31.1113 13.1376 32.4564 13.0842 32.6025L13.1107 32.642Z" fill="url(#paint21_linear_733_2673)"/>
<path d="M6.41824 29.9898C6.1001 29.7773 5.63155 29.6489 5.26375 29.5559C4.64859 29.4058 4.02739 29.289 3.40017 29.2052C3.03114 29.1532 0.760488 28.9489 0.537612 29.0818C0.551662 29.3087 2.0488 31.182 2.26653 31.4396C2.73127 31.9896 3.22861 32.4903 3.76144 32.9743C3.89965 33.0998 4.03004 33.2457 4.18026 33.3559C4.32275 33.4604 4.49478 33.5371 4.65038 33.6206C5.12594 33.8759 5.56663 34.1079 6.11683 34.1527C6.70119 34.2004 7.01429 34.0063 7.43736 33.6407C7.58554 33.5127 7.64432 33.3683 7.73465 33.2014C7.9372 32.8272 8.11381 32.493 8.13985 32.0571C8.17129 31.5321 7.92667 31.1611 7.5926 30.7809C7.25098 30.6869 6.69618 30.232 6.41824 29.9898Z" fill="url(#paint22_linear_733_2673)"/>
<path d="M17.9634 16.2574C17.8216 16.1202 17.3955 15.7818 17.2094 15.7588C16.9863 15.6149 16.7708 15.4579 16.5465 15.3166C15.9964 14.9701 15.4098 14.6358 14.8214 14.3581C13.6811 13.7597 12.1421 13.1805 10.8607 13.5534C10.3914 13.69 10.0859 14.0454 9.86307 14.4665C9.63503 14.8977 9.58452 15.7448 9.73625 16.209C9.89115 16.6827 10.271 17.0048 10.7066 17.2274C12.0642 17.9212 14.4316 17.4075 15.8282 16.984C16.3268 16.8328 16.8281 16.6666 17.3195 16.4932C17.5353 16.4171 17.7451 16.3267 17.9634 16.2574ZM17.2094 15.7588C17.1489 15.7756 17.1414 15.7859 17.0846 15.7543C16.8993 15.651 16.7224 15.5012 16.5475 15.379C16.6221 15.462 16.7148 15.5308 16.805 15.5964L16.8017 15.6221L16.8265 15.6325L16.835 15.6228L16.8158 15.605L16.8202 15.6299C16.6392 15.5423 16.4872 15.4119 16.3171 15.3064C16.034 15.1307 15.707 14.9975 15.4555 14.7797C15.4051 14.7361 15.3474 14.6798 15.2843 14.6599L15.2826 14.7069C15.1055 14.6508 14.9359 14.5021 14.8214 14.3581C15.4098 14.6358 15.9964 14.9701 16.5465 15.3166C16.7708 15.4579 16.9863 15.6149 17.2094 15.7588Z" fill="url(#paint23_linear_733_2673)"/>
<path d="M17.2094 15.7588C16.9863 15.6149 16.7708 15.4579 16.5465 15.3166C15.9964 14.9701 15.4098 14.6358 14.8214 14.3581C14.9359 14.5021 15.1055 14.6508 15.2826 14.7069L15.2843 14.6599C15.3474 14.6798 15.4051 14.7361 15.4555 14.7797C15.707 14.9975 16.034 15.1307 16.3171 15.3064C16.4872 15.4119 16.6392 15.5423 16.8202 15.6299L16.8158 15.605L16.835 15.6228L16.8265 15.6325L16.8017 15.6221L16.805 15.5964C16.7148 15.5308 16.6221 15.462 16.5475 15.379C16.7224 15.5012 16.8993 15.651 17.0846 15.7543C17.1414 15.7859 17.1489 15.7756 17.2094 15.7588Z" fill="url(#paint24_linear_733_2673)"/>
<path d="M8.23513 19.701C8.16233 19.8139 8.09212 19.938 8.03363 20.0592C7.81494 20.5122 7.96214 21.0989 8.12128 21.5489C8.29455 22.0385 8.55515 22.4492 9.03871 22.6796C9.60279 22.9485 10.6343 22.8193 11.2075 22.6172C12.7565 22.0711 14.0163 21.0634 15.2571 20.0223C15.4615 19.8508 15.9597 19.4653 16.0636 19.2441L16.0431 19.2188C14.5738 18.8967 13.1144 18.6429 11.6088 18.5859C11.3282 18.5963 11.0463 18.5928 10.7664 18.6141C9.86437 18.6826 8.92319 18.948 8.29022 19.6195C8.2653 19.6459 8.25103 19.6688 8.23513 19.701ZM11.6088 18.5859C11.6109 18.6411 11.6227 18.6629 11.5855 18.7054C11.506 18.7167 11.4264 18.7167 11.3467 18.7055C11.3207 18.7016 11.2352 18.6671 11.2144 18.6723C11.2144 18.6723 11.1595 18.7102 11.1558 18.712C11.0797 18.7492 10.8427 18.7171 10.7596 18.6988C10.7355 18.6935 10.746 18.6934 10.7238 18.6993L10.7248 18.7233C10.5868 18.7996 10.1598 18.8028 9.97815 18.8459C9.71219 18.909 9.46521 19.021 9.20274 19.0918C9.04903 19.1334 8.9252 19.2721 8.76899 19.3246C8.59617 19.3827 8.41102 19.7069 8.23513 19.701C8.25103 19.6688 8.2653 19.6459 8.29022 19.6195C8.92319 18.948 9.86437 18.6826 10.7664 18.6141C11.0463 18.5928 11.3282 18.5963 11.6088 18.5859Z" fill="url(#paint25_linear_733_2673)"/>
<path d="M11.6088 18.5859C11.3282 18.5963 11.0463 18.5928 10.7664 18.6141C9.86437 18.6826 8.92319 18.948 8.29022 19.6195C8.2653 19.6459 8.25103 19.6688 8.23513 19.701C8.41102 19.7069 8.59617 19.3827 8.76899 19.3246C8.9252 19.2721 9.04903 19.1334 9.20274 19.0918C9.46521 19.021 9.71219 18.909 9.97815 18.8459C10.1598 18.8028 10.5868 18.7996 10.7248 18.7233L10.7238 18.6993C10.746 18.6934 10.7355 18.6935 10.7596 18.6988C10.8427 18.7171 11.0797 18.7492 11.1558 18.712C11.1595 18.7102 11.2144 18.6723 11.2144 18.6723C11.2352 18.6671 11.3207 18.7016 11.3467 18.7055C11.4264 18.7167 11.506 18.7167 11.5855 18.7054C11.6227 18.6629 11.6109 18.6411 11.6088 18.5859Z" fill="url(#paint26_linear_733_2673)"/>
<path d="M10.4468 39.3821C10.5637 39.0873 10.6591 38.7667 10.6779 38.4479C10.7041 38.0054 10.586 37.584 10.2849 37.2485C10.1502 37.0986 9.97634 36.9775 9.80875 36.8675C8.86023 36.2455 7.77042 36.18 6.67844 36.1111C6.33312 36.1357 5.98503 36.1307 5.63881 36.1542C4.88939 36.2053 4.1584 36.2956 3.41613 36.406C3.20028 36.4381 2.89036 36.45 2.69505 36.5429L2.66614 36.5805C2.67501 36.6325 2.68434 36.6342 2.72406 36.6707C2.73342 36.6862 2.73854 36.6956 2.7488 36.7098C2.97125 37.0159 3.47657 37.422 3.77416 37.6879C3.96124 37.8551 4.13961 38.0349 4.33226 38.1952C4.48625 38.3235 4.65587 38.4324 4.81011 38.5602C4.99135 38.7105 5.15019 38.8843 5.33596 39.0303C5.61457 39.2494 5.90126 39.4172 6.20432 39.5973C6.88718 40.0032 7.5088 40.3354 8.30565 40.463C8.78757 40.5402 9.4075 40.5516 9.81686 40.2508C9.894 40.1941 10.0819 40.0453 10.0944 39.9598C10.2267 39.7752 10.3543 39.5904 10.4468 39.3821ZM6.67844 36.1111L6.65615 36.1791L6.67575 36.1465L6.64187 36.2205C6.59349 36.2179 6.62123 36.2225 6.57686 36.2086C6.53587 36.1958 6.55481 36.198 6.50974 36.2061L6.50351 36.2518C6.40776 36.248 6.39162 36.1644 6.30475 36.2372L6.31826 36.2128C6.18237 36.2378 6.0008 36.2821 5.87332 36.2121L5.89254 36.232L5.86446 36.2264L5.84841 36.258C5.66747 36.2972 5.52914 36.2773 5.35103 36.2865C5.21525 36.2935 5.08175 36.3229 4.94632 36.3338C4.80718 36.3451 4.66657 36.3389 4.5277 36.3539C4.14941 36.3947 3.77444 36.5004 3.39631 36.5354C3.19176 36.5543 3.04272 36.5034 2.84059 36.6139C2.83267 36.6424 2.82514 36.671 2.818 36.6998C2.78694 36.689 2.75647 36.6763 2.72406 36.6707C2.68434 36.6342 2.67501 36.6325 2.66614 36.5805L2.69505 36.5429C2.89036 36.45 3.20028 36.4381 3.41613 36.406C4.1584 36.2956 4.88939 36.2053 5.63881 36.1542C5.98503 36.1307 6.33312 36.1357 6.67844 36.1111ZM10.0944 39.9598C10.0803 39.9052 10.0778 39.8876 10.0998 39.8359C10.1681 39.6757 10.2821 39.4481 10.4468 39.3821C10.3543 39.5904 10.2267 39.7752 10.0944 39.9598Z" fill="url(#paint27_linear_733_2673)"/>
<path d="M10.0944 39.9598C10.2267 39.7752 10.3543 39.5904 10.4468 39.3821C10.2821 39.4481 10.1681 39.6757 10.0998 39.8359C10.0778 39.8876 10.0803 39.9052 10.0944 39.9598Z" fill="url(#paint28_linear_733_2673)"/>
<path d="M6.67844 36.1111C6.33312 36.1357 5.98503 36.1307 5.63881 36.1542C4.88939 36.2053 4.1584 36.2956 3.41613 36.406C3.20028 36.4381 2.89036 36.45 2.69505 36.5429L2.66614 36.5805C2.67501 36.6325 2.68434 36.6342 2.72406 36.6707C2.75647 36.6763 2.78694 36.689 2.818 36.6998C2.82514 36.671 2.83267 36.6424 2.84059 36.6139C3.04272 36.5034 3.19176 36.5543 3.39631 36.5354C3.77444 36.5004 4.14941 36.3947 4.5277 36.3539C4.66657 36.3389 4.80718 36.3451 4.94632 36.3338C5.08175 36.3229 5.21525 36.2935 5.35103 36.2865C5.52914 36.2773 5.66747 36.2972 5.84841 36.258L5.86446 36.2264L5.89254 36.232L5.87332 36.2121C6.0008 36.2821 6.18237 36.2378 6.31826 36.2128L6.30475 36.2372C6.39162 36.1644 6.40776 36.248 6.50351 36.2518L6.50974 36.2061C6.55481 36.198 6.53587 36.1958 6.57686 36.2086C6.62123 36.2225 6.59349 36.2179 6.64187 36.2205L6.67575 36.1465L6.65615 36.1791L6.67844 36.1111Z" fill="url(#paint29_linear_733_2673)"/>
<defs>
<linearGradient id="paint0_linear_733_2673" x1="23.5" y1="14.5" x2="6.6813" y2="41.1167" gradientUnits="userSpaceOnUse">
<stop offset="0.15" stop-color="#33CCFF"/>
<stop offset="1" stop-color="#0026E2"/>
</linearGradient>
<linearGradient id="paint1_linear_733_2673" x1="23.5" y1="14.5" x2="6.6813" y2="41.1167" gradientUnits="userSpaceOnUse">
<stop offset="0.15" stop-color="#33CCFF"/>
<stop offset="1" stop-color="#0026E2"/>
</linearGradient>
<linearGradient id="paint2_linear_733_2673" x1="23.5" y1="14.5" x2="6.6813" y2="41.1167" gradientUnits="userSpaceOnUse">
<stop offset="0.15" stop-color="#33CCFF"/>
<stop offset="1" stop-color="#0026E2"/>
</linearGradient>
<linearGradient id="paint3_linear_733_2673" x1="23.5" y1="14.5" x2="6.6813" y2="41.1167" gradientUnits="userSpaceOnUse">
<stop offset="0.15" stop-color="#33CCFF"/>
<stop offset="1" stop-color="#0026E2"/>
</linearGradient>
<linearGradient id="paint4_linear_733_2673" x1="23.5" y1="14.5" x2="6.6813" y2="41.1167" gradientUnits="userSpaceOnUse">
<stop offset="0.15" stop-color="#33CCFF"/>
<stop offset="1" stop-color="#0026E2"/>
</linearGradient>
<linearGradient id="paint5_linear_733_2673" x1="23.5" y1="14.5" x2="6.6813" y2="41.1167" gradientUnits="userSpaceOnUse">
<stop offset="0.15" stop-color="#33CCFF"/>
<stop offset="1" stop-color="#0026E2"/>
</linearGradient>
<linearGradient id="paint6_linear_733_2673" x1="23.5" y1="14.5" x2="6.6813" y2="41.1167" gradientUnits="userSpaceOnUse">
<stop offset="0.15" stop-color="#33CCFF"/>
<stop offset="1" stop-color="#0026E2"/>
</linearGradient>
<linearGradient id="paint7_linear_733_2673" x1="23.5" y1="14.5" x2="6.6813" y2="41.1167" gradientUnits="userSpaceOnUse">
<stop offset="0.15" stop-color="#33CCFF"/>
<stop offset="1" stop-color="#0026E2"/>
</linearGradient>
<linearGradient id="paint8_linear_733_2673" x1="23.5" y1="14.5" x2="6.6813" y2="41.1167" gradientUnits="userSpaceOnUse">
<stop offset="0.15" stop-color="#33CCFF"/>
<stop offset="1" stop-color="#0026E2"/>
</linearGradient>
<linearGradient id="paint9_linear_733_2673" x1="23.5" y1="14.5" x2="6.6813" y2="41.1167" gradientUnits="userSpaceOnUse">
<stop offset="0.15" stop-color="#33CCFF"/>
<stop offset="1" stop-color="#0026E2"/>
</linearGradient>
<linearGradient id="paint10_linear_733_2673" x1="23.5" y1="14.5" x2="6.6813" y2="41.1167" gradientUnits="userSpaceOnUse">
<stop offset="0.15" stop-color="#33CCFF"/>
<stop offset="1" stop-color="#0026E2"/>
</linearGradient>
<linearGradient id="paint11_linear_733_2673" x1="23.5" y1="14.5" x2="6.6813" y2="41.1167" gradientUnits="userSpaceOnUse">
<stop offset="0.15" stop-color="#33CCFF"/>
<stop offset="1" stop-color="#0026E2"/>
</linearGradient>
<linearGradient id="paint12_linear_733_2673" x1="23.5" y1="14.5" x2="6.6813" y2="41.1167" gradientUnits="userSpaceOnUse">
<stop offset="0.15" stop-color="#33CCFF"/>
<stop offset="1" stop-color="#0026E2"/>
</linearGradient>
<linearGradient id="paint13_linear_733_2673" x1="23.5" y1="14.5" x2="6.6813" y2="41.1167" gradientUnits="userSpaceOnUse">
<stop offset="0.15" stop-color="#33CCFF"/>
<stop offset="1" stop-color="#0026E2"/>
</linearGradient>
<linearGradient id="paint14_linear_733_2673" x1="23.5" y1="14.5" x2="6.6813" y2="41.1167" gradientUnits="userSpaceOnUse">
<stop offset="0.15" stop-color="#33CCFF"/>
<stop offset="1" stop-color="#0026E2"/>
</linearGradient>
<linearGradient id="paint15_linear_733_2673" x1="23.5" y1="14.5" x2="6.6813" y2="41.1167" gradientUnits="userSpaceOnUse">
<stop offset="0.15" stop-color="#33CCFF"/>
<stop offset="1" stop-color="#0026E2"/>
</linearGradient>
<linearGradient id="paint16_linear_733_2673" x1="23.5" y1="14.5" x2="6.6813" y2="41.1167" gradientUnits="userSpaceOnUse">
<stop offset="0.15" stop-color="#33CCFF"/>
<stop offset="1" stop-color="#0026E2"/>
</linearGradient>
<linearGradient id="paint17_linear_733_2673" x1="23.5" y1="14.5" x2="6.6813" y2="41.1167" gradientUnits="userSpaceOnUse">
<stop offset="0.15" stop-color="#33CCFF"/>
<stop offset="1" stop-color="#0026E2"/>
</linearGradient>
<linearGradient id="paint18_linear_733_2673" x1="23.5" y1="14.5" x2="6.6813" y2="41.1167" gradientUnits="userSpaceOnUse">
<stop offset="0.15" stop-color="#33CCFF"/>
<stop offset="1" stop-color="#0026E2"/>
</linearGradient>
<linearGradient id="paint19_linear_733_2673" x1="23.5" y1="14.5" x2="6.6813" y2="41.1167" gradientUnits="userSpaceOnUse">
<stop offset="0.15" stop-color="#33CCFF"/>
<stop offset="1" stop-color="#0026E2"/>
</linearGradient>
<linearGradient id="paint20_linear_733_2673" x1="23.5" y1="14.5" x2="6.6813" y2="41.1167" gradientUnits="userSpaceOnUse">
<stop offset="0.15" stop-color="#33CCFF"/>
<stop offset="1" stop-color="#0026E2"/>
</linearGradient>
<linearGradient id="paint21_linear_733_2673" x1="23.5" y1="14.5" x2="6.6813" y2="41.1167" gradientUnits="userSpaceOnUse">
<stop offset="0.15" stop-color="#33CCFF"/>
<stop offset="1" stop-color="#0026E2"/>
</linearGradient>
<linearGradient id="paint22_linear_733_2673" x1="23.5" y1="14.5" x2="6.6813" y2="41.1167" gradientUnits="userSpaceOnUse">
<stop offset="0.15" stop-color="#33CCFF"/>
<stop offset="1" stop-color="#0026E2"/>
</linearGradient>
<linearGradient id="paint23_linear_733_2673" x1="23.5" y1="14.5" x2="6.6813" y2="41.1167" gradientUnits="userSpaceOnUse">
<stop offset="0.15" stop-color="#33CCFF"/>
<stop offset="1" stop-color="#0026E2"/>
</linearGradient>
<linearGradient id="paint24_linear_733_2673" x1="23.5" y1="14.5" x2="6.6813" y2="41.1167" gradientUnits="userSpaceOnUse">
<stop offset="0.15" stop-color="#33CCFF"/>
<stop offset="1" stop-color="#0026E2"/>
</linearGradient>
<linearGradient id="paint25_linear_733_2673" x1="23.5" y1="14.5" x2="6.6813" y2="41.1167" gradientUnits="userSpaceOnUse">
<stop offset="0.15" stop-color="#33CCFF"/>
<stop offset="1" stop-color="#0026E2"/>
</linearGradient>
<linearGradient id="paint26_linear_733_2673" x1="23.5" y1="14.5" x2="6.6813" y2="41.1167" gradientUnits="userSpaceOnUse">
<stop offset="0.15" stop-color="#33CCFF"/>
<stop offset="1" stop-color="#0026E2"/>
</linearGradient>
<linearGradient id="paint27_linear_733_2673" x1="23.5" y1="14.5" x2="6.6813" y2="41.1167" gradientUnits="userSpaceOnUse">
<stop offset="0.15" stop-color="#33CCFF"/>
<stop offset="1" stop-color="#0026E2"/>
</linearGradient>
<linearGradient id="paint28_linear_733_2673" x1="23.5" y1="14.5" x2="6.6813" y2="41.1167" gradientUnits="userSpaceOnUse">
<stop offset="0.15" stop-color="#33CCFF"/>
<stop offset="1" stop-color="#0026E2"/>
</linearGradient>
<linearGradient id="paint29_linear_733_2673" x1="23.5" y1="14.5" x2="6.6813" y2="41.1167" gradientUnits="userSpaceOnUse">
<stop offset="0.15" stop-color="#33CCFF"/>
<stop offset="1" stop-color="#0026E2"/>
</linearGradient>
</defs>
</svg>
