<svg width="25" height="53" viewBox="0 0 25 53" fill="none" xmlns="http://www.w3.org/2000/svg">
<path d="M9.5686 37.901L9.66883 37.88C9.77293 38.0174 9.92789 38.1778 9.99501 38.3361L9.96977 38.38C9.8132 38.2725 9.68351 38.0521 9.5686 37.901Z" fill="url(#paint0_linear_733_2676)"/>
<path d="M10.2196 7.62693C10.4037 7.825 10.7116 8.18491 10.8079 8.43204C10.82 8.4632 10.8138 8.44895 10.8336 8.4846C10.5617 8.23719 10.3631 7.96575 10.2196 7.62693Z" fill="url(#paint1_linear_733_2676)"/>
<path d="M9.5686 37.901C9.31666 37.5485 9.04077 37.2041 8.85896 36.809C9.15724 37.141 9.40837 37.518 9.66883 37.88L9.5686 37.901Z" fill="url(#paint2_linear_733_2676)"/>
<path d="M17.1535 30.7809C17.4824 30.447 17.896 30.1742 18.3279 29.9898C18.0499 30.232 17.4951 30.6869 17.1535 30.7809Z" fill="url(#paint3_linear_733_2676)"/>
<path d="M9.58292 23.2985C9.7617 23.2675 9.94112 23.3056 10.1216 23.2821C10.1062 23.3421 10.1074 23.3656 10.0603 23.408C10.0066 23.4002 9.96241 23.3825 9.91115 23.4026C9.86613 23.4202 9.82881 23.4168 9.78432 23.3992C9.90693 23.6491 10.1 23.8816 10.2634 24.107L11.0059 25.1255C11.1009 25.2537 11.2619 25.4155 11.3215 25.5598C11.3362 25.5954 11.3305 25.6058 11.3182 25.6418C11.0917 25.4672 10.7862 24.9728 10.6041 24.7222C10.261 24.2501 9.91187 23.7805 9.58292 23.2985Z" fill="url(#paint4_linear_733_2676)"/>
<path d="M4.63998 49.4534C5.201 48.9728 5.74854 48.4773 6.28262 47.967C6.81673 47.4568 7.33656 46.9324 7.8421 46.394C8.34767 45.8555 8.83822 45.3038 9.31374 44.7389C9.78926 44.1739 10.2491 43.5965 10.6931 43.0066C11.1404 42.4257 11.5764 41.8366 12.0013 41.2393C12.0972 41.1052 12.5972 40.3273 12.677 40.2893C12.6969 40.3409 12.6696 40.3861 12.6476 40.4353C12.4951 40.7768 12.3619 41.137 12.1982 41.4721C12.1135 41.6454 11.9925 41.8129 11.9005 41.9854C11.7819 42.2077 11.6758 42.4384 11.5521 42.6576C11.4212 42.8897 11.2705 43.1133 11.1297 43.3396C10.7932 43.8804 10.4465 44.4232 10.0694 44.9371C9.65621 45.5001 9.20614 46.0431 8.75827 46.5789C8.49559 46.8931 8.23348 47.2063 7.95442 47.5063C7.86855 47.5985 7.78099 47.7098 7.6848 47.7903C7.62483 47.8559 7.56132 47.9437 7.49107 47.9967C7.2829 48.249 7.02953 48.479 6.7982 48.7108C6.14159 49.3685 5.45211 50.0146 4.75317 50.6277C4.3841 50.9513 3.96061 51.2285 3.63431 51.6011L2.52989 52.4035C2.24956 52.4063 1.88644 52.3417 1.62588 52.2427C1.46119 52.1801 1.26367 52.0773 1.19605 51.9045C1.16805 51.833 1.15391 51.6969 1.18588 51.6285C1.22473 51.5928 2.06316 51.1779 2.12408 51.1693C2.45938 50.9543 2.80999 50.763 3.14363 50.5484C3.44929 50.3519 3.74198 50.1221 4.03637 49.9082C4.23843 49.7613 4.45258 49.6186 4.63998 49.4534ZM2.12408 51.1693C2.24176 51.2064 2.31173 51.1532 2.41642 51.0986C2.57582 51.0154 2.72622 50.9159 2.87319 50.8126C3.10327 50.6511 3.31745 50.4689 3.54432 50.3031C3.88298 50.0555 4.23698 49.8187 4.56579 49.559C4.59441 49.5364 4.62129 49.516 4.6331 49.4801C4.63597 49.4713 4.63768 49.4623 4.63998 49.4534C4.45258 49.6186 4.23843 49.7613 4.03637 49.9082C3.74198 50.1221 3.44929 50.3519 3.14363 50.5484C2.80999 50.763 2.45938 50.9543 2.12408 51.1693ZM7.49107 47.9967C7.56132 47.9437 7.62483 47.8559 7.6848 47.7903C7.5541 47.8241 7.47844 47.8649 7.39774 47.9736L7.40543 48.0071L7.49107 47.9967Z" fill="url(#paint5_linear_733_2676)"/>
<path d="M7.49107 47.9967L7.40543 48.0071L7.39774 47.9736C7.47844 47.8649 7.5541 47.8241 7.6848 47.7903C7.62483 47.8559 7.56132 47.9437 7.49107 47.9967Z" fill="url(#paint6_linear_733_2676)"/>
<path d="M2.12408 51.1693C2.45938 50.9543 2.80999 50.763 3.14363 50.5484C3.44929 50.3519 3.74198 50.1221 4.03637 49.9082C4.23843 49.7613 4.45258 49.6186 4.63998 49.4534C4.63768 49.4623 4.63597 49.4713 4.6331 49.4801C4.62129 49.516 4.59441 49.5364 4.56579 49.559C4.23698 49.8187 3.88298 50.0555 3.54432 50.3031C3.31745 50.4689 3.10327 50.6511 2.87319 50.8126C2.72622 50.9159 2.57582 51.0154 2.41642 51.0986C2.31173 51.1532 2.24176 51.2064 2.12408 51.1693Z" fill="url(#paint7_linear_733_2676)"/>
<path d="M10.2196 7.62693C9.63494 6.47206 9.86042 4.53255 10.1165 3.29996C10.1945 2.92419 10.3099 2.54342 10.4065 2.17058C10.5012 1.80525 10.5822 1.42811 10.7013 1.07005C10.7243 1.00103 10.747 0.92765 10.7998 0.875338C10.9188 0.917119 11.0362 1.14228 11.1211 1.23429C11.188 1.30685 11.2763 1.35832 11.3433 1.43557C11.5499 1.67355 11.7279 1.94971 11.9141 2.20426C12.5251 3.03981 13.1109 3.89342 13.5561 4.83193C13.7023 5.14027 13.8495 5.47185 13.9402 5.8011C14.0929 6.35484 14.142 7.11011 13.9433 7.65853C13.8032 8.04507 13.5261 8.31759 13.1553 8.49092C12.589 8.75555 11.775 8.89106 11.1781 8.6679C11.0551 8.62194 10.9403 8.56084 10.8336 8.4846C10.8138 8.44895 10.82 8.4632 10.8079 8.43204C10.7116 8.18491 10.4037 7.825 10.2196 7.62693Z" fill="url(#paint8_linear_733_2676)"/>
<path d="M19.4801 23.0078C19.4855 23.0037 19.4909 22.9994 19.4964 22.9953C20.6581 22.1392 22.026 21.5695 23.3722 21.0745C23.5292 21.0168 23.919 20.8365 24.0756 20.8575L24.0995 20.8929C24.1393 21.1928 23.3898 23.336 23.2336 23.7301C23.0625 24.1616 22.8627 24.5843 22.6692 25.0063C22.23 25.7802 21.9851 26.212 21.3043 26.8275C20.9364 27.16 20.4115 27.4414 19.904 27.4152C19.2316 27.3804 18.7607 26.9341 18.3383 26.4603C18.0558 26.1434 17.8625 25.7554 17.8912 25.3237C17.9373 24.6312 18.3832 23.9636 18.8808 23.4999C19.069 23.3245 19.2858 23.1774 19.4801 23.0078Z" fill="url(#paint9_linear_733_2676)"/>
<path d="M0.97671 4.0892L1.00147 4.07121C1.3395 4.0688 1.67584 4.02123 2.01379 4.0052C3.8827 3.91675 6.77468 3.76706 8.19894 5.16389C8.48771 5.44716 8.69383 5.82965 8.69099 6.24161C8.68723 6.77798 8.34271 7.60172 7.95976 7.97718C7.8819 8.06663 7.80953 8.15601 7.71085 8.22339C7.70371 8.22827 7.69676 8.2333 7.68962 8.23807C7.6853 8.24096 7.68089 8.24358 7.67649 8.24636C7.66648 8.25386 7.65677 8.26178 7.64645 8.26886C7.28932 8.51374 6.72868 8.54318 6.31931 8.45997C4.58702 8.10777 3.34172 6.7957 2.19996 5.55147C1.79216 5.10703 1.30587 4.58588 0.97671 4.0892ZM7.67649 8.24636C7.68089 8.24358 7.6853 8.24096 7.68962 8.23807C7.69676 8.2333 7.70371 8.22827 7.71085 8.22339C7.80953 8.15601 7.8819 8.06663 7.95976 7.97718C7.8694 8.02334 7.59867 8.13108 7.56145 8.22535C7.55657 8.23764 7.55526 8.25097 7.55214 8.26379C7.59057 8.23826 7.60273 8.22261 7.64971 8.21913L7.67649 8.24636Z" fill="url(#paint10_linear_733_2676)"/>
<path d="M7.67649 8.24636L7.64971 8.21913C7.60273 8.22261 7.59057 8.23826 7.55214 8.26379C7.55526 8.25097 7.55657 8.23764 7.56145 8.22535C7.59867 8.13108 7.8694 8.02334 7.95976 7.97718C7.8819 8.06663 7.80953 8.15601 7.71085 8.22339C7.70371 8.22827 7.69676 8.2333 7.68962 8.23807C7.6853 8.24096 7.68089 8.24358 7.67649 8.24636Z" fill="url(#paint11_linear_733_2676)"/>
<path d="M16.8049 13.748C16.1762 13.7136 15.5653 13.6329 15.1236 13.1372C14.7042 12.6665 14.646 11.7385 14.6914 11.1349C14.8049 9.62356 15.7655 7.81725 16.5298 6.52137C16.6614 6.29824 16.8022 5.96052 16.9909 5.78733C17.0101 5.7696 17.0296 5.75764 17.0521 5.74452C17.1004 5.75463 17.1026 5.76563 17.1294 5.80511C17.3409 6.1171 17.5409 6.72793 17.6845 7.09123C18.1083 8.16325 18.4978 9.21952 18.6868 10.3635C18.7311 10.6308 18.7752 10.8989 18.7796 11.1707C18.7856 11.539 18.7278 11.9557 18.647 12.3162C18.5358 12.8124 18.3016 13.2396 17.862 13.5138C17.6693 13.6341 17.4588 13.6891 17.2379 13.7305C17.0933 13.7398 16.9497 13.7467 16.8049 13.748ZM16.8049 13.748C16.9497 13.7467 17.0933 13.7398 17.2379 13.7305C17.2239 13.7153 17.2116 13.701 17.1952 13.6879C17.1383 13.6425 17.042 13.6101 16.969 13.6203C16.8793 13.6329 16.8551 13.6806 16.8049 13.748Z" fill="url(#paint12_linear_733_2676)"/>
<path d="M16.8049 13.748C16.8551 13.6806 16.8793 13.6329 16.969 13.6203C17.042 13.6101 17.1383 13.6425 17.1952 13.6879C17.2116 13.701 17.2239 13.7153 17.2379 13.7305C17.0933 13.7398 16.9497 13.7467 16.8049 13.748Z" fill="url(#paint13_linear_733_2676)"/>
<path d="M17.2038 19.3944C16.9531 18.6488 17.1431 17.9161 17.4879 17.2285C18.1087 15.9901 19.1576 14.9575 20.1886 14.0501C20.3337 13.9224 20.489 13.8069 20.6345 13.6793C20.8214 13.5153 21.2749 13.0695 21.4835 13.0144C21.496 13.0111 21.5093 13.0124 21.5223 13.0113C21.6348 13.294 21.618 13.8286 21.6317 14.1396C21.6957 15.5867 21.732 17.7022 21.1593 19.0385C20.947 19.5338 20.6719 19.9419 20.2575 20.2875C20.1279 20.3955 19.9922 20.5024 19.8328 20.5623C19.3379 20.7484 18.6731 20.5606 18.2203 20.3431C18.0238 20.2487 17.8478 20.1361 17.673 20.0069C17.4516 19.8262 17.3153 19.6577 17.2038 19.3944ZM17.673 20.0069L17.6913 19.9701C17.6784 19.8831 17.2933 19.4767 17.2038 19.3944C17.3153 19.6577 17.4516 19.8262 17.673 20.0069Z" fill="url(#paint14_linear_733_2676)"/>
<path d="M17.673 20.0069C17.4516 19.8262 17.3153 19.6577 17.2038 19.3944C17.2933 19.4767 17.6784 19.8831 17.6913 19.9701L17.673 20.0069Z" fill="url(#paint15_linear_733_2676)"/>
<path d="M11.3182 25.6418C11.3305 25.6058 11.3362 25.5954 11.3215 25.5598C11.2619 25.4155 11.1009 25.2537 11.0059 25.1255L10.2634 24.107C10.1 23.8816 9.90693 23.6491 9.78432 23.3992C9.82881 23.4168 9.86613 23.4202 9.91115 23.4026C9.96241 23.3825 10.0066 23.4002 10.0603 23.408C10.1074 23.3656 10.1062 23.3421 10.1216 23.2821C12.1755 23.3983 15.3891 23.4352 16.8493 25.0778C17.1101 25.3713 17.2904 25.7755 17.2628 26.1751C17.2209 26.7785 16.7929 27.5438 16.3349 27.9359C16.0014 28.2213 15.581 28.318 15.1504 28.2829C14.7276 28.2484 14.3291 28.0967 13.9535 27.9095C13.0901 27.4794 12.4333 26.8843 11.7896 26.1773C11.6294 26.0013 11.4822 25.8144 11.3182 25.6418Z" fill="url(#paint16_linear_733_2676)"/>
<path d="M8.85896 36.809C8.67738 36.5124 8.55872 36.1948 8.42983 35.8731C8.20401 35.309 8.0044 34.7357 7.831 34.1531C7.65767 33.5706 7.51128 32.9812 7.39183 32.385C7.64913 32.3376 10.2124 33.6108 10.5558 33.7977C10.8898 33.9795 11.2276 34.1807 11.5406 34.3966C12.3064 34.9252 12.9886 35.5013 13.4107 36.3486C13.5025 36.5329 13.5911 36.7239 13.6285 36.928C13.7039 37.3405 13.579 37.7558 13.3402 38.094C13.0513 38.503 12.3302 39.056 11.8276 39.1465C11.3393 39.2343 10.8518 39.0838 10.4565 38.8027C10.2904 38.6846 10.0984 38.5392 9.96977 38.38L9.99501 38.3361C9.92789 38.1778 9.77293 38.0174 9.66883 37.88C9.40837 37.518 9.15724 37.141 8.85896 36.809Z" fill="url(#paint17_linear_733_2676)"/>
<path d="M5.35649 11.3521C5.57055 11.1535 5.77413 10.9423 5.99184 10.7479C6.1328 10.622 6.28679 10.5107 6.42886 10.386C6.79539 10.064 7.15179 9.75704 7.56586 9.49415C7.76904 9.36517 7.9868 9.25678 8.19987 9.14515C8.71677 8.86519 9.70556 8.62906 10.2723 8.79268C10.7722 8.93704 11.1027 9.43602 11.3346 9.87464C11.5767 10.3325 11.7093 10.9129 11.5463 11.4193C11.3728 11.9587 10.8952 12.3649 10.4021 12.6145C8.81063 13.4201 6.91338 13.3792 5.18357 13.2777C4.8055 13.2556 4.14718 13.2374 3.79108 13.1435C3.78162 13.0853 3.81386 13.0441 3.84766 12.9966C4.18122 12.5273 4.66356 12.0926 5.05982 11.6685C5.15668 11.5649 5.26976 11.4635 5.35649 11.3521ZM5.35649 11.3521C5.3854 11.3393 5.41414 11.3251 5.44339 11.3131C5.47247 11.301 5.49694 11.2935 5.52225 11.2745C5.65846 11.1721 5.77559 11.0356 5.90376 10.9221C6.03198 10.8087 6.17304 10.7124 6.29904 10.5956L6.08815 10.7552C6.20713 10.6323 6.34359 10.5397 6.47159 10.4283C6.53008 10.3775 6.58022 10.3138 6.6437 10.2689C6.73192 10.2066 6.83577 10.1673 6.92578 10.1036C7.1358 9.95494 7.34008 9.79869 7.55117 9.65141C7.77783 9.4933 8.00421 9.34205 8.19987 9.14515C7.9868 9.25678 7.76904 9.36517 7.56586 9.49415C7.15179 9.75704 6.79539 10.064 6.42886 10.386C6.28679 10.5107 6.1328 10.622 5.99184 10.7479C5.77413 10.9423 5.57055 11.1535 5.35649 11.3521Z" fill="url(#paint18_linear_733_2676)"/>
<path d="M5.35649 11.3521C5.57055 11.1535 5.77413 10.9423 5.99184 10.7479C6.1328 10.622 6.28679 10.5107 6.42886 10.386C6.79539 10.064 7.15179 9.75704 7.56586 9.49415C7.76904 9.36517 7.9868 9.25678 8.19987 9.14515C8.00421 9.34205 7.77783 9.4933 7.55117 9.65141C7.34008 9.79869 7.1358 9.95494 6.92578 10.1036C6.83577 10.1673 6.73192 10.2066 6.6437 10.2689C6.58022 10.3138 6.53008 10.3775 6.47159 10.4283C6.34359 10.5397 6.20713 10.6323 6.08815 10.7552L6.29904 10.5956C6.17304 10.7124 6.03198 10.8087 5.90376 10.9221C5.77559 11.0356 5.65846 11.1721 5.52225 11.2745C5.49694 11.2935 5.47247 11.301 5.44339 11.3131C5.41414 11.3251 5.3854 11.3393 5.35649 11.3521Z" fill="url(#paint19_linear_733_2676)"/>
<path d="M10.4276 30.9374C10.1446 30.4674 8.86182 27.6678 8.93997 27.3299C9.30676 27.3672 9.86181 27.5851 10.2279 27.7052C11.7651 28.2099 13.9417 28.9647 14.9772 30.245C15.3388 30.6921 15.7022 31.1789 15.6375 31.7887C15.579 32.3406 15.1337 32.8448 14.7178 33.1779C14.3194 33.497 13.9531 33.7404 13.422 33.6851C12.7794 33.6183 12.0576 33.1113 11.6354 32.642C11.382 32.4482 10.5668 31.247 10.4276 30.9374ZM11.6354 32.642L11.6619 32.6025C11.6085 32.4564 10.591 31.1113 10.4276 30.9374C10.5668 31.247 11.382 32.4482 11.6354 32.642Z" fill="url(#paint20_linear_733_2676)"/>
<path d="M11.6354 32.642C11.382 32.4482 10.5668 31.247 10.4276 30.9374C10.591 31.1113 11.6085 32.4564 11.6619 32.6025L11.6354 32.642Z" fill="url(#paint21_linear_733_2676)"/>
<path d="M18.3279 29.9898C18.646 29.7773 19.1145 29.6489 19.4823 29.5559C20.0975 29.4058 20.7187 29.289 21.3459 29.2052C21.715 29.1532 23.9856 28.9489 24.2085 29.0818C24.1944 29.3087 22.6973 31.182 22.4796 31.4396C22.0148 31.9896 21.5175 32.4903 20.9847 32.9743C20.8464 33.0998 20.7161 33.2457 20.5658 33.3559C20.4233 33.4604 20.2513 33.5371 20.0957 33.6206C19.6202 33.8759 19.1795 34.1079 18.6293 34.1527C18.0449 34.2004 17.7318 34.0063 17.3087 33.6407C17.1606 33.5127 17.1018 33.3683 17.0114 33.2014C16.8089 32.8272 16.6323 32.493 16.6062 32.0571C16.5748 31.5321 16.8194 31.1611 17.1535 30.7809C17.4951 30.6869 18.0499 30.232 18.3279 29.9898Z" fill="url(#paint22_linear_733_2676)"/>
<path d="M6.78266 16.2574C6.92451 16.1202 7.35057 15.7818 7.53666 15.7588C7.75977 15.6149 7.97529 15.4579 8.19957 15.3166C8.74967 14.9701 9.33631 14.6358 9.92468 14.3581C11.065 13.7597 12.604 13.1805 13.8854 13.5534C14.3547 13.69 14.6602 14.0454 14.883 14.4665C15.1111 14.8977 15.1616 15.7448 15.0098 16.209C14.8549 16.6827 14.4751 17.0048 14.0395 17.2274C12.6819 17.9212 10.3145 17.4075 8.91794 16.984C8.41926 16.8328 7.91794 16.6666 7.42662 16.4932C7.21084 16.4171 7.00102 16.3267 6.78266 16.2574ZM7.53666 15.7588C7.59722 15.7756 7.60465 15.7859 7.66149 15.7543C7.84681 15.651 8.02372 15.5012 8.19861 15.379C8.12395 15.462 8.03127 15.5308 7.94112 15.5964L7.94443 15.6221L7.91961 15.6325L7.91107 15.6228L7.93031 15.605L7.92587 15.6299C8.10691 15.5423 8.25894 15.4119 8.42901 15.3064C8.71208 15.1307 9.03905 14.9975 9.2906 14.7797C9.34101 14.7361 9.39865 14.6798 9.46174 14.6599L9.46351 14.7069C9.64055 14.6508 9.81014 14.5021 9.92468 14.3581C9.33631 14.6358 8.74967 14.9701 8.19957 15.3166C7.97529 15.4579 7.75977 15.6149 7.53666 15.7588Z" fill="url(#paint23_linear_733_2676)"/>
<path d="M7.53666 15.7588C7.75977 15.6149 7.97529 15.4579 8.19957 15.3166C8.74967 14.9701 9.33631 14.6358 9.92468 14.3581C9.81014 14.5021 9.64055 14.6508 9.46351 14.7069L9.46174 14.6599C9.39865 14.6798 9.34101 14.7361 9.2906 14.7797C9.03905 14.9975 8.71208 15.1307 8.42901 15.3064C8.25894 15.4119 8.10691 15.5423 7.92587 15.6299L7.93031 15.605L7.91107 15.6228L7.91961 15.6325L7.94443 15.6221L7.94112 15.5964C8.03127 15.5308 8.12395 15.462 8.19861 15.379C8.02372 15.5012 7.84681 15.651 7.66149 15.7543C7.60465 15.7859 7.59722 15.7756 7.53666 15.7588Z" fill="url(#paint24_linear_733_2676)"/>
<path d="M16.511 19.701C16.5838 19.8139 16.654 19.938 16.7125 20.0592C16.9312 20.5122 16.784 21.0989 16.6248 21.5489C16.4515 22.0385 16.1909 22.4492 15.7074 22.6796C15.1433 22.9485 14.1118 22.8193 13.5386 22.6172C11.9896 22.0711 10.7298 21.0634 9.48904 20.0223C9.28461 19.8508 8.78637 19.4653 8.68254 19.2441L8.70297 19.2188C10.1722 18.8967 11.6317 18.6429 13.1373 18.5859C13.4179 18.5963 13.6997 18.5928 13.9797 18.6141C14.8817 18.6826 15.8229 18.948 16.4559 19.6195C16.4808 19.6459 16.4951 19.6688 16.511 19.701ZM13.1373 18.5859C13.1352 18.6411 13.1234 18.6629 13.1606 18.7054C13.2401 18.7167 13.3197 18.7167 13.3994 18.7055C13.4254 18.7016 13.5109 18.6671 13.5317 18.6723C13.5317 18.6723 13.5866 18.7102 13.5903 18.712C13.6664 18.7492 13.9033 18.7171 13.9865 18.6988C14.0106 18.6935 14.0001 18.6934 14.0223 18.6993L14.0213 18.7233C14.1593 18.7996 14.5863 18.8028 14.7679 18.8459C15.0339 18.909 15.2809 19.021 15.5434 19.0918C15.6971 19.1334 15.8209 19.2721 15.9771 19.3246C16.1499 19.3827 16.3351 19.7069 16.511 19.701C16.4951 19.6688 16.4808 19.6459 16.4559 19.6195C15.8229 18.948 14.8817 18.6826 13.9797 18.6141C13.6997 18.5928 13.4179 18.5963 13.1373 18.5859Z" fill="url(#paint25_linear_733_2676)"/>
<path d="M13.1373 18.5859C13.4179 18.5963 13.6997 18.5928 13.9797 18.6141C14.8817 18.6826 15.8229 18.948 16.4559 19.6195C16.4808 19.6459 16.4951 19.6688 16.511 19.701C16.3351 19.7069 16.1499 19.3827 15.9771 19.3246C15.8209 19.2721 15.6971 19.1334 15.5434 19.0918C15.2809 19.021 15.0339 18.909 14.7679 18.8459C14.5863 18.8028 14.1593 18.7996 14.0213 18.7233L14.0223 18.6993C14.0001 18.6934 14.0106 18.6935 13.9865 18.6988C13.9033 18.7171 13.6664 18.7492 13.5903 18.712C13.5866 18.7102 13.5317 18.6723 13.5317 18.6723C13.5109 18.6671 13.4254 18.7016 13.3994 18.7055C13.3197 18.7167 13.2401 18.7167 13.1606 18.7054C13.1234 18.6629 13.1352 18.6411 13.1373 18.5859Z" fill="url(#paint26_linear_733_2676)"/>
<path d="M14.2993 39.3821C14.1824 39.0873 14.087 38.7667 14.0682 38.4479C14.042 38.0054 14.1601 37.584 14.4612 37.2485C14.5959 37.0986 14.7698 36.9775 14.9373 36.8675C15.8859 36.2455 16.9757 36.18 18.0677 36.1111C18.413 36.1357 18.7611 36.1307 19.1073 36.1542C19.8567 36.2053 20.5877 36.2956 21.33 36.406C21.5458 36.4381 21.8557 36.45 22.051 36.5429L22.08 36.5805C22.0711 36.6325 22.0618 36.6342 22.022 36.6707C22.0127 36.6862 22.0076 36.6956 21.9973 36.7098C21.7748 37.0159 21.2695 37.422 20.9719 37.6879C20.7849 37.8551 20.6065 38.0349 20.4138 38.1952C20.2598 38.3235 20.0902 38.4324 19.936 38.5602C19.7547 38.7105 19.5959 38.8843 19.4101 39.0303C19.1315 39.2494 18.8448 39.4172 18.5418 39.5973C17.8589 40.0032 17.2373 40.3354 16.4404 40.463C15.9585 40.5402 15.3386 40.5516 14.9292 40.2508C14.8521 40.1941 14.6641 40.0453 14.6517 39.9598C14.5194 39.7752 14.3918 39.5904 14.2993 39.3821ZM18.0677 36.1111L18.0899 36.1791L18.0703 36.1465L18.1042 36.2205C18.1526 36.2179 18.1249 36.2225 18.1692 36.2086C18.2102 36.1958 18.1913 36.198 18.2364 36.2061L18.2426 36.2518C18.3383 36.248 18.3545 36.1644 18.4413 36.2372L18.4278 36.2128C18.5637 36.2378 18.7453 36.2821 18.8728 36.2121L18.8535 36.232L18.8816 36.2264L18.8977 36.258C19.0786 36.2972 19.217 36.2773 19.3951 36.2865C19.5308 36.2935 19.6643 36.3229 19.7998 36.3338C19.9389 36.3451 20.0795 36.3389 20.2184 36.3539C20.5967 36.3947 20.9717 36.5004 21.3498 36.5354C21.5543 36.5543 21.7034 36.5034 21.9055 36.6139C21.9134 36.6424 21.921 36.671 21.9281 36.6998C21.9592 36.689 21.9896 36.6763 22.022 36.6707C22.0618 36.6342 22.0711 36.6325 22.08 36.5805L22.051 36.5429C21.8557 36.45 21.5458 36.4381 21.33 36.406C20.5877 36.2956 19.8567 36.2053 19.1073 36.1542C18.7611 36.1307 18.413 36.1357 18.0677 36.1111ZM14.6517 39.9598C14.6658 39.9052 14.6683 39.8876 14.6463 39.8359C14.578 39.6757 14.464 39.4481 14.2993 39.3821C14.3918 39.5904 14.5194 39.7752 14.6517 39.9598Z" fill="url(#paint27_linear_733_2676)"/>
<path d="M14.6517 39.9598C14.5194 39.7752 14.3918 39.5904 14.2993 39.3821C14.464 39.4481 14.578 39.6757 14.6463 39.8359C14.6683 39.8876 14.6658 39.9052 14.6517 39.9598Z" fill="url(#paint28_linear_733_2676)"/>
<path d="M18.0677 36.1111C18.413 36.1357 18.7611 36.1307 19.1073 36.1542C19.8567 36.2053 20.5877 36.2956 21.33 36.406C21.5458 36.4381 21.8557 36.45 22.051 36.5429L22.08 36.5805C22.0711 36.6325 22.0618 36.6342 22.022 36.6707C21.9896 36.6763 21.9592 36.689 21.9281 36.6998C21.921 36.671 21.9134 36.6424 21.9055 36.6139C21.7034 36.5034 21.5543 36.5543 21.3498 36.5354C20.9717 36.5004 20.5967 36.3947 20.2184 36.3539C20.0795 36.3389 19.9389 36.3451 19.7998 36.3338C19.6643 36.3229 19.5308 36.2935 19.3951 36.2865C19.217 36.2773 19.0786 36.2972 18.8977 36.258L18.8816 36.2264L18.8535 36.232L18.8728 36.2121C18.7453 36.2821 18.5637 36.2378 18.4278 36.2128L18.4413 36.2372C18.3545 36.1644 18.3383 36.248 18.2426 36.2518L18.2364 36.2061C18.1913 36.198 18.2102 36.1958 18.1692 36.2086C18.1249 36.2225 18.1526 36.2179 18.1042 36.2205L18.0703 36.1465L18.0899 36.1791L18.0677 36.1111Z" fill="url(#paint29_linear_733_2676)"/>
<defs>
<linearGradient id="paint0_linear_733_2676" x1="1.24609" y1="14.5" x2="18.0648" y2="41.1167" gradientUnits="userSpaceOnUse">
<stop offset="0.15" stop-color="#33CCFF"/>
<stop offset="1" stop-color="#0026E2"/>
</linearGradient>
<linearGradient id="paint1_linear_733_2676" x1="1.24609" y1="14.5" x2="18.0648" y2="41.1167" gradientUnits="userSpaceOnUse">
<stop offset="0.15" stop-color="#33CCFF"/>
<stop offset="1" stop-color="#0026E2"/>
</linearGradient>
<linearGradient id="paint2_linear_733_2676" x1="1.24609" y1="14.5" x2="18.0648" y2="41.1167" gradientUnits="userSpaceOnUse">
<stop offset="0.15" stop-color="#33CCFF"/>
<stop offset="1" stop-color="#0026E2"/>
</linearGradient>
<linearGradient id="paint3_linear_733_2676" x1="1.24609" y1="14.5" x2="18.0648" y2="41.1167" gradientUnits="userSpaceOnUse">
<stop offset="0.15" stop-color="#33CCFF"/>
<stop offset="1" stop-color="#0026E2"/>
</linearGradient>
<linearGradient id="paint4_linear_733_2676" x1="1.24609" y1="14.5" x2="18.0648" y2="41.1167" gradientUnits="userSpaceOnUse">
<stop offset="0.15" stop-color="#33CCFF"/>
<stop offset="1" stop-color="#0026E2"/>
</linearGradient>
<linearGradient id="paint5_linear_733_2676" x1="1.24609" y1="14.5" x2="18.0648" y2="41.1167" gradientUnits="userSpaceOnUse">
<stop offset="0.15" stop-color="#33CCFF"/>
<stop offset="1" stop-color="#0026E2"/>
</linearGradient>
<linearGradient id="paint6_linear_733_2676" x1="1.24609" y1="14.5" x2="18.0648" y2="41.1167" gradientUnits="userSpaceOnUse">
<stop offset="0.15" stop-color="#33CCFF"/>
<stop offset="1" stop-color="#0026E2"/>
</linearGradient>
<linearGradient id="paint7_linear_733_2676" x1="1.24609" y1="14.5" x2="18.0648" y2="41.1167" gradientUnits="userSpaceOnUse">
<stop offset="0.15" stop-color="#33CCFF"/>
<stop offset="1" stop-color="#0026E2"/>
</linearGradient>
<linearGradient id="paint8_linear_733_2676" x1="1.24609" y1="14.5" x2="18.0648" y2="41.1167" gradientUnits="userSpaceOnUse">
<stop offset="0.15" stop-color="#33CCFF"/>
<stop offset="1" stop-color="#0026E2"/>
</linearGradient>
<linearGradient id="paint9_linear_733_2676" x1="1.24609" y1="14.5" x2="18.0648" y2="41.1167" gradientUnits="userSpaceOnUse">
<stop offset="0.15" stop-color="#33CCFF"/>
<stop offset="1" stop-color="#0026E2"/>
</linearGradient>
<linearGradient id="paint10_linear_733_2676" x1="1.24609" y1="14.5" x2="18.0648" y2="41.1167" gradientUnits="userSpaceOnUse">
<stop offset="0.15" stop-color="#33CCFF"/>
<stop offset="1" stop-color="#0026E2"/>
</linearGradient>
<linearGradient id="paint11_linear_733_2676" x1="1.24609" y1="14.5" x2="18.0648" y2="41.1167" gradientUnits="userSpaceOnUse">
<stop offset="0.15" stop-color="#33CCFF"/>
<stop offset="1" stop-color="#0026E2"/>
</linearGradient>
<linearGradient id="paint12_linear_733_2676" x1="1.24609" y1="14.5" x2="18.0648" y2="41.1167" gradientUnits="userSpaceOnUse">
<stop offset="0.15" stop-color="#33CCFF"/>
<stop offset="1" stop-color="#0026E2"/>
</linearGradient>
<linearGradient id="paint13_linear_733_2676" x1="1.24609" y1="14.5" x2="18.0648" y2="41.1167" gradientUnits="userSpaceOnUse">
<stop offset="0.15" stop-color="#33CCFF"/>
<stop offset="1" stop-color="#0026E2"/>
</linearGradient>
<linearGradient id="paint14_linear_733_2676" x1="1.24609" y1="14.5" x2="18.0648" y2="41.1167" gradientUnits="userSpaceOnUse">
<stop offset="0.15" stop-color="#33CCFF"/>
<stop offset="1" stop-color="#0026E2"/>
</linearGradient>
<linearGradient id="paint15_linear_733_2676" x1="1.24609" y1="14.5" x2="18.0648" y2="41.1167" gradientUnits="userSpaceOnUse">
<stop offset="0.15" stop-color="#33CCFF"/>
<stop offset="1" stop-color="#0026E2"/>
</linearGradient>
<linearGradient id="paint16_linear_733_2676" x1="1.24609" y1="14.5" x2="18.0648" y2="41.1167" gradientUnits="userSpaceOnUse">
<stop offset="0.15" stop-color="#33CCFF"/>
<stop offset="1" stop-color="#0026E2"/>
</linearGradient>
<linearGradient id="paint17_linear_733_2676" x1="1.24609" y1="14.5" x2="18.0648" y2="41.1167" gradientUnits="userSpaceOnUse">
<stop offset="0.15" stop-color="#33CCFF"/>
<stop offset="1" stop-color="#0026E2"/>
</linearGradient>
<linearGradient id="paint18_linear_733_2676" x1="1.24609" y1="14.5" x2="18.0648" y2="41.1167" gradientUnits="userSpaceOnUse">
<stop offset="0.15" stop-color="#33CCFF"/>
<stop offset="1" stop-color="#0026E2"/>
</linearGradient>
<linearGradient id="paint19_linear_733_2676" x1="1.24609" y1="14.5" x2="18.0648" y2="41.1167" gradientUnits="userSpaceOnUse">
<stop offset="0.15" stop-color="#33CCFF"/>
<stop offset="1" stop-color="#0026E2"/>
</linearGradient>
<linearGradient id="paint20_linear_733_2676" x1="1.24609" y1="14.5" x2="18.0648" y2="41.1167" gradientUnits="userSpaceOnUse">
<stop offset="0.15" stop-color="#33CCFF"/>
<stop offset="1" stop-color="#0026E2"/>
</linearGradient>
<linearGradient id="paint21_linear_733_2676" x1="1.24609" y1="14.5" x2="18.0648" y2="41.1167" gradientUnits="userSpaceOnUse">
<stop offset="0.15" stop-color="#33CCFF"/>
<stop offset="1" stop-color="#0026E2"/>
</linearGradient>
<linearGradient id="paint22_linear_733_2676" x1="1.24609" y1="14.5" x2="18.0648" y2="41.1167" gradientUnits="userSpaceOnUse">
<stop offset="0.15" stop-color="#33CCFF"/>
<stop offset="1" stop-color="#0026E2"/>
</linearGradient>
<linearGradient id="paint23_linear_733_2676" x1="1.24609" y1="14.5" x2="18.0648" y2="41.1167" gradientUnits="userSpaceOnUse">
<stop offset="0.15" stop-color="#33CCFF"/>
<stop offset="1" stop-color="#0026E2"/>
</linearGradient>
<linearGradient id="paint24_linear_733_2676" x1="1.24609" y1="14.5" x2="18.0648" y2="41.1167" gradientUnits="userSpaceOnUse">
<stop offset="0.15" stop-color="#33CCFF"/>
<stop offset="1" stop-color="#0026E2"/>
</linearGradient>
<linearGradient id="paint25_linear_733_2676" x1="1.24609" y1="14.5" x2="18.0648" y2="41.1167" gradientUnits="userSpaceOnUse">
<stop offset="0.15" stop-color="#33CCFF"/>
<stop offset="1" stop-color="#0026E2"/>
</linearGradient>
<linearGradient id="paint26_linear_733_2676" x1="1.24609" y1="14.5" x2="18.0648" y2="41.1167" gradientUnits="userSpaceOnUse">
<stop offset="0.15" stop-color="#33CCFF"/>
<stop offset="1" stop-color="#0026E2"/>
</linearGradient>
<linearGradient id="paint27_linear_733_2676" x1="1.24609" y1="14.5" x2="18.0648" y2="41.1167" gradientUnits="userSpaceOnUse">
<stop offset="0.15" stop-color="#33CCFF"/>
<stop offset="1" stop-color="#0026E2"/>
</linearGradient>
<linearGradient id="paint28_linear_733_2676" x1="1.24609" y1="14.5" x2="18.0648" y2="41.1167" gradientUnits="userSpaceOnUse">
<stop offset="0.15" stop-color="#33CCFF"/>
<stop offset="1" stop-color="#0026E2"/>
</linearGradient>
<linearGradient id="paint29_linear_733_2676" x1="1.24609" y1="14.5" x2="18.0648" y2="41.1167" gradientUnits="userSpaceOnUse">
<stop offset="0.15" stop-color="#33CCFF"/>
<stop offset="1" stop-color="#0026E2"/>
</linearGradient>
</defs>
</svg>
