<svg width="24" height="53" viewBox="0 0 24 53" fill="none" xmlns="http://www.w3.org/2000/svg">
<path d="M9.06762 37.9007L9.16785 37.8796C9.27195 38.017 9.42691 38.1774 9.49403 38.3358L9.46879 38.3796C9.31222 38.2721 9.18254 38.0517 9.06762 37.9007Z" fill="url(#paint0_linear_374_5089)"/>
<path d="M9.71863 7.62656C9.9027 7.82463 10.2107 8.18454 10.3069 8.43167C10.319 8.46283 10.3128 8.44858 10.3326 8.48423C10.0607 8.23683 9.8621 7.96538 9.71863 7.62656Z" fill="url(#paint1_linear_374_5089)"/>
<path d="M9.06762 37.9007C8.81568 37.5481 8.5398 37.2038 8.35798 36.8087C8.65626 37.1407 8.90739 37.5176 9.16785 37.8796L9.06762 37.9007Z" fill="url(#paint2_linear_374_5089)"/>
<path d="M16.6525 30.7805C16.9814 30.4466 17.395 30.1738 17.8269 29.9895C17.5489 30.2316 16.9941 30.6865 16.6525 30.7805Z" fill="url(#paint3_linear_374_5089)"/>
<path d="M9.08195 23.2981C9.26072 23.2671 9.44015 23.3052 9.62057 23.2817C9.60518 23.3418 9.60643 23.3652 9.55935 23.4076C9.50558 23.3998 9.46143 23.3822 9.41017 23.4022C9.36515 23.4198 9.32783 23.4165 9.28334 23.3989C9.40595 23.6488 9.59899 23.8813 9.76242 24.1066L10.505 25.1251C10.5999 25.2534 10.7609 25.4152 10.8205 25.5594C10.8352 25.5951 10.8295 25.6054 10.8172 25.6415C10.5907 25.4668 10.2852 24.9724 10.1032 24.7219C9.76006 24.2498 9.4109 23.7802 9.08195 23.2981Z" fill="url(#paint4_linear_374_5089)"/>
<path d="M4.139 49.453C4.70002 48.9724 5.24757 48.4769 5.78164 47.9667C6.31576 47.4564 6.83559 46.9321 7.34113 46.3937C7.8467 45.8552 8.33724 45.3034 8.81276 44.7385C9.28828 44.1735 9.74807 43.5961 10.1921 43.0063C10.6394 42.4253 11.0755 41.8362 11.5003 41.2389C11.5962 41.1049 12.0962 40.3269 12.176 40.2889C12.1959 40.3405 12.1687 40.3857 12.1466 40.4349C11.9941 40.7765 11.8609 41.1367 11.6972 41.4718C11.6125 41.645 11.4915 41.8126 11.3995 41.9851C11.2809 42.2073 11.1749 42.438 11.0512 42.6573C10.9202 42.8893 10.7695 43.113 10.6287 43.3393C10.2922 43.88 9.94556 44.4228 9.56845 44.9367C9.15523 45.4998 8.70516 46.0428 8.25729 46.5785C7.99461 46.8928 7.73251 47.2059 7.45344 47.5059C7.36757 47.5982 7.28002 47.7095 7.18382 47.7899C7.12385 47.8556 7.06034 47.9433 6.99009 47.9963C6.78193 48.2487 6.52855 48.4786 6.29723 48.7104C5.64061 49.3681 4.95114 50.0142 4.25219 50.6273C3.88313 50.951 3.45963 51.2281 3.13334 51.6007L2.02892 52.4031C1.74858 52.4059 1.38546 52.3413 1.12491 52.2424C0.960217 52.1798 0.762695 52.0769 0.695072 51.9042C0.66707 51.8327 0.652936 51.6966 0.684901 51.6281C0.723756 51.5925 1.56218 51.1775 1.6231 51.1689C1.9584 50.954 2.30901 50.7627 2.64266 50.5481C2.94832 50.3515 3.241 50.1217 3.53539 49.9079C3.73745 49.761 3.95161 49.6182 4.139 49.453ZM1.6231 51.1689C1.74079 51.206 1.81075 51.1529 1.91545 51.0982C2.07485 51.0151 2.22524 50.9156 2.37221 50.8123C2.60229 50.6507 2.81648 50.4685 3.04334 50.3027C3.382 50.0551 3.736 49.8183 4.06482 49.5587C4.09343 49.536 4.12031 49.5156 4.13212 49.4797C4.13499 49.471 4.13671 49.4619 4.139 49.453C3.95161 49.6182 3.73745 49.761 3.53539 49.9079C3.241 50.1217 2.94832 50.3515 2.64266 50.5481C2.30901 50.7627 1.9584 50.954 1.6231 51.1689ZM6.99009 47.9963C7.06034 47.9433 7.12385 47.8556 7.18382 47.7899C7.05312 47.8237 6.97746 47.8645 6.89676 47.9732L6.90446 48.0068L6.99009 47.9963Z" fill="url(#paint5_linear_374_5089)"/>
<path d="M6.99009 47.9963L6.90446 48.0068L6.89676 47.9732C6.97746 47.8645 7.05312 47.8237 7.18382 47.7899C7.12385 47.8556 7.06034 47.9433 6.99009 47.9963Z" fill="url(#paint6_linear_374_5089)"/>
<path d="M1.6231 51.1689C1.9584 50.954 2.30901 50.7627 2.64266 50.5481C2.94832 50.3515 3.241 50.1217 3.53539 49.9079C3.73745 49.761 3.95161 49.6182 4.139 49.453C4.13671 49.4619 4.13499 49.471 4.13212 49.4797C4.12031 49.5156 4.09343 49.536 4.06482 49.5587C3.736 49.8183 3.382 50.0551 3.04334 50.3027C2.81648 50.4685 2.60229 50.6507 2.37221 50.8123C2.22524 50.9156 2.07485 51.0151 1.91545 51.0982C1.81075 51.1529 1.74079 51.206 1.6231 51.1689Z" fill="url(#paint7_linear_374_5089)"/>
<path d="M9.71863 7.62656C9.13396 6.47169 9.35945 4.53219 9.61551 3.29959C9.69356 2.92383 9.80891 2.54305 9.90552 2.17022C10.0002 1.80489 10.0812 1.42774 10.2004 1.06968C10.2233 1.00066 10.246 0.927284 10.2988 0.874972C10.4178 0.916752 10.5352 1.14192 10.6201 1.23393C10.687 1.30648 10.7754 1.35796 10.8424 1.4352C11.0489 1.67318 11.2269 1.94935 11.4131 2.20389C12.0242 3.03945 12.6099 3.89305 13.0551 4.83157C13.2013 5.1399 13.3485 5.47149 13.4392 5.80073C13.5919 6.35448 13.6411 7.10974 13.4423 7.65817C13.3023 8.0447 13.0251 8.31723 12.6543 8.49055C12.088 8.75518 11.274 8.8907 10.6771 8.66753C10.5541 8.62157 10.4393 8.56047 10.3326 8.48423C10.3128 8.44858 10.319 8.46283 10.3069 8.43167C10.2107 8.18454 9.9027 7.82463 9.71863 7.62656Z" fill="url(#paint8_linear_374_5089)"/>
<path d="M18.9791 23.0074C18.9845 23.0033 18.9899 22.999 18.9954 22.9949C20.1572 22.1388 21.5251 21.5692 22.8712 21.0742C23.0283 21.0165 23.418 20.8361 23.5746 20.8572L23.5985 20.8925C23.6383 21.1924 22.8888 23.3357 22.7326 23.7298C22.5616 24.1612 22.3617 24.584 22.1682 25.0059C21.729 25.7799 21.4842 26.2116 20.8033 26.8271C20.4354 27.1596 19.9105 27.4411 19.403 27.4148C18.7306 27.38 18.2597 26.9337 17.8373 26.4599C17.5549 26.143 17.3615 25.755 17.3902 25.3234C17.4363 24.6309 17.8822 23.9632 18.3798 23.4995C18.568 23.3241 18.7848 23.1771 18.9791 23.0074Z" fill="url(#paint9_linear_374_5089)"/>
<path d="M0.475733 4.08883L0.50049 4.07084C0.83852 4.06843 1.17486 4.02087 1.51281 4.00483C3.38172 3.91639 6.27371 3.7667 7.69797 5.16352C7.98673 5.4468 8.19285 5.82928 8.19002 6.24124C8.18625 6.77762 7.84173 7.60136 7.45879 7.97682C7.38092 8.06626 7.30855 8.15565 7.20988 8.22302C7.20273 8.2279 7.19578 8.23293 7.18865 8.2377C7.18433 8.24059 7.17992 8.24321 7.17552 8.24599C7.1655 8.25349 7.15579 8.26141 7.14547 8.26849C6.78834 8.51338 6.22771 8.54281 5.81833 8.4596C4.08605 8.10741 2.84074 6.79534 1.69899 5.55111C1.29119 5.10667 0.80489 4.58551 0.475733 4.08883ZM7.17552 8.24599C7.17992 8.24321 7.18433 8.24059 7.18865 8.2377C7.19578 8.23293 7.20273 8.2279 7.20988 8.22302C7.30855 8.15565 7.38092 8.06626 7.45879 7.97682C7.36843 8.02297 7.09769 8.13071 7.06047 8.22498C7.0556 8.23728 7.05429 8.2506 7.05116 8.26343C7.0896 8.2379 7.10176 8.22224 7.14873 8.21877L7.17552 8.24599Z" fill="url(#paint10_linear_374_5089)"/>
<path d="M7.17552 8.24599L7.14873 8.21877C7.10176 8.22224 7.0896 8.2379 7.05116 8.26343C7.05429 8.2506 7.0556 8.23728 7.06047 8.22498C7.09769 8.13071 7.36843 8.02297 7.45879 7.97682C7.38092 8.06626 7.30855 8.15565 7.20988 8.22302C7.20273 8.2279 7.19578 8.23293 7.18865 8.2377C7.18433 8.24059 7.17992 8.24321 7.17552 8.24599Z" fill="url(#paint11_linear_374_5089)"/>
<path d="M16.3039 13.7476C15.6752 13.7133 15.0643 13.6326 14.6226 13.1369C14.2032 12.6661 14.145 11.7381 14.1904 11.1346C14.3039 9.62319 15.2645 7.81688 16.0288 6.52101C16.1605 6.29788 16.3013 5.96015 16.4899 5.78696C16.5091 5.76924 16.5286 5.75728 16.5511 5.74415C16.5994 5.75426 16.6017 5.76527 16.6284 5.80475C16.8399 6.11673 17.0399 6.72756 17.1835 7.09086C17.6074 8.16289 17.9968 9.21916 18.1858 10.3632C18.2301 10.6305 18.2742 10.8985 18.2787 11.1703C18.2847 11.5386 18.2268 11.9553 18.146 12.3158C18.0348 12.812 17.8006 13.2392 17.361 13.5135C17.1683 13.6337 16.9578 13.6887 16.7369 13.7301C16.5923 13.7395 16.4487 13.7463 16.3039 13.7476ZM16.3039 13.7476C16.4487 13.7463 16.5923 13.7395 16.7369 13.7301C16.7229 13.7149 16.7106 13.7007 16.6942 13.6876C16.6373 13.6421 16.5411 13.6097 16.468 13.62C16.3783 13.6326 16.3541 13.6802 16.3039 13.7476Z" fill="url(#paint12_linear_374_5089)"/>
<path d="M16.3039 13.7476C16.3541 13.6802 16.3783 13.6326 16.468 13.62C16.5411 13.6097 16.6373 13.6421 16.6942 13.6876C16.7106 13.7007 16.7229 13.7149 16.7369 13.7301C16.5923 13.7395 16.4487 13.7463 16.3039 13.7476Z" fill="url(#paint13_linear_374_5089)"/>
<path d="M16.7028 19.394C16.4522 18.6484 16.6422 17.9157 16.9869 17.2281C17.6078 15.9897 18.6566 14.9571 19.6876 14.0497C19.8328 13.922 19.988 13.8066 20.1335 13.679C20.3204 13.5149 20.774 13.0692 20.9825 13.0141C20.995 13.0107 21.0083 13.012 21.0213 13.011C21.1339 13.2936 21.117 13.8282 21.1307 14.1392C21.1947 15.5864 21.231 17.7019 20.6583 19.0381C20.4461 19.5334 20.1709 19.9416 19.7565 20.2871C19.627 20.3952 19.4912 20.502 19.3318 20.5619C18.837 20.748 18.1721 20.5603 17.7193 20.3427C17.5229 20.2483 17.3468 20.1358 17.1721 20.0066C16.9506 19.8258 16.8143 19.6573 16.7028 19.394ZM17.1721 20.0066L17.1903 19.9697C17.1774 19.8827 16.7923 19.4763 16.7028 19.394C16.8143 19.6573 16.9506 19.8258 17.1721 20.0066Z" fill="url(#paint14_linear_374_5089)"/>
<path d="M17.1721 20.0066C16.9506 19.8258 16.8143 19.6573 16.7028 19.394C16.7923 19.4763 17.1774 19.8827 17.1903 19.9697L17.1721 20.0066Z" fill="url(#paint15_linear_374_5089)"/>
<path d="M10.8172 25.6415C10.8295 25.6054 10.8352 25.5951 10.8205 25.5594C10.7609 25.4152 10.5999 25.2534 10.505 25.1251L9.76242 24.1066C9.59899 23.8813 9.40595 23.6488 9.28334 23.3989C9.32783 23.4165 9.36515 23.4198 9.41017 23.4022C9.46143 23.3822 9.50558 23.3998 9.55935 23.4076C9.60643 23.3652 9.60518 23.3418 9.62057 23.2817C11.6746 23.398 14.8881 23.4348 16.3483 25.0774C16.6092 25.3709 16.7894 25.7751 16.7618 26.1747C16.72 26.7781 16.292 27.5434 15.8339 27.9355C15.5005 28.221 15.08 28.3177 14.6495 28.2825C14.2266 28.248 13.8281 28.0963 13.4525 27.9092C12.5891 27.479 11.9323 26.8839 11.2887 26.1769C11.1284 26.0009 10.9812 25.814 10.8172 25.6415Z" fill="url(#paint16_linear_374_5089)"/>
<path d="M8.35798 36.8087C8.1764 36.512 8.05774 36.1944 7.92885 35.8727C7.70303 35.3087 7.50343 34.7353 7.33003 34.1528C7.1567 33.5702 7.01031 32.9808 6.89086 32.3846C7.14816 32.3372 9.71139 33.6104 10.0548 33.7974C10.3888 33.9791 10.7266 34.1803 11.0396 34.3963C11.8054 34.9248 12.4876 35.501 12.9097 36.3483C13.0015 36.5325 13.0902 36.7235 13.1275 36.9276C13.2029 37.3401 13.078 37.7555 12.8392 38.0936C12.5503 38.5026 11.8292 39.0557 11.3266 39.1461C10.8383 39.234 10.3508 39.0834 9.95555 38.8024C9.78942 38.6843 9.59743 38.5389 9.46879 38.3796L9.49403 38.3358C9.42691 38.1774 9.27195 38.017 9.16785 37.8796C8.90739 37.5176 8.65626 37.1407 8.35798 36.8087Z" fill="url(#paint17_linear_374_5089)"/>
<path d="M4.85551 11.3517C5.06958 11.1531 5.27315 10.9419 5.49086 10.7476C5.63182 10.6217 5.78581 10.5104 5.92788 10.3856C6.29442 10.0636 6.65081 9.75667 7.06488 9.49378C7.26806 9.3648 7.48583 9.25642 7.69889 9.14478C8.2158 8.86483 9.20458 8.62869 9.77128 8.79231C10.2712 8.93668 10.6017 9.43566 10.8336 9.87427C11.0758 10.3321 11.2084 10.9126 11.0454 11.4189C10.8718 11.9583 10.3942 12.3646 9.90116 12.6142C8.30966 13.4197 6.4124 13.3788 4.68259 13.2774C4.30453 13.2552 3.6462 13.237 3.2901 13.1431C3.28065 13.085 3.31289 13.0437 3.34668 12.9962C3.68024 12.527 4.16258 12.0922 4.55884 11.6682C4.6557 11.5646 4.76879 11.4631 4.85551 11.3517ZM4.85551 11.3517C4.88443 11.3389 4.91317 11.3248 4.94242 11.3127C4.97149 11.3007 4.99596 11.2931 5.02127 11.2741C5.15748 11.1717 5.27461 11.0352 5.40278 10.9217C5.531 10.8083 5.67206 10.712 5.79806 10.5952L5.58717 10.7548C5.70615 10.6319 5.84262 10.5393 5.97061 10.428C6.0291 10.3772 6.07924 10.3134 6.14273 10.2685C6.23094 10.2062 6.33479 10.167 6.42481 10.1032C6.63482 9.95457 6.8391 9.79833 7.05019 9.65105C7.27685 9.49294 7.50324 9.34169 7.69889 9.14478C7.48583 9.25642 7.26806 9.3648 7.06488 9.49378C6.65081 9.75667 6.29442 10.0636 5.92788 10.3856C5.78581 10.5104 5.63182 10.6217 5.49086 10.7476C5.27315 10.9419 5.06958 11.1531 4.85551 11.3517Z" fill="url(#paint18_linear_374_5089)"/>
<path d="M4.85551 11.3517C5.06958 11.1531 5.27315 10.9419 5.49086 10.7476C5.63182 10.6217 5.78581 10.5104 5.92788 10.3856C6.29442 10.0636 6.65081 9.75667 7.06488 9.49378C7.26806 9.3648 7.48583 9.25642 7.69889 9.14478C7.50324 9.34169 7.27685 9.49294 7.05019 9.65105C6.8391 9.79833 6.63482 9.95457 6.42481 10.1032C6.33479 10.167 6.23094 10.2062 6.14273 10.2685C6.07924 10.3134 6.0291 10.3772 5.97061 10.428C5.84262 10.5393 5.70615 10.6319 5.58717 10.7548L5.79806 10.5952C5.67206 10.712 5.531 10.8083 5.40278 10.9217C5.27461 11.0352 5.15748 11.1717 5.02127 11.2741C4.99596 11.2931 4.97149 11.3007 4.94242 11.3127C4.91317 11.3248 4.88443 11.3389 4.85551 11.3517Z" fill="url(#paint19_linear_374_5089)"/>
<path d="M9.92657 30.937C9.64363 30.467 8.36085 27.6674 8.43899 27.3295C8.80579 27.3668 9.36084 27.5847 9.72696 27.7049C11.2641 28.2096 13.4407 28.9643 14.4763 30.2446C14.8379 30.6917 15.2012 31.1786 15.1365 31.7884C15.078 32.3403 14.6327 32.8445 14.2168 33.1775C13.8184 33.4966 13.4521 33.74 12.921 33.6848C12.2785 33.618 11.5566 33.111 11.1344 32.6416C10.8811 32.4478 10.0658 31.2467 9.92657 30.937ZM11.1344 32.6416L11.1609 32.6022C11.1075 32.456 10.09 31.111 9.92657 30.937C10.0658 31.2467 10.8811 32.4478 11.1344 32.6416Z" fill="url(#paint20_linear_374_5089)"/>
<path d="M11.1344 32.6416C10.8811 32.4478 10.0658 31.2467 9.92657 30.937C10.09 31.111 11.1075 32.456 11.1609 32.6022L11.1344 32.6416Z" fill="url(#paint21_linear_374_5089)"/>
<path d="M17.8269 29.9895C18.145 29.777 18.6136 29.6485 18.9814 29.5555C19.5965 29.4055 20.2177 29.2886 20.8449 29.2049C21.214 29.1528 23.4846 28.9486 23.7075 29.0815C23.6935 29.3083 22.1963 31.1816 21.9786 31.4393C21.5139 31.9893 21.0165 32.4899 20.4837 32.9739C20.3455 33.0994 20.2151 33.2454 20.0649 33.3556C19.9224 33.4601 19.7503 33.5368 19.5947 33.6203C19.1192 33.8755 18.6785 34.1075 18.1283 34.1524C17.5439 34.2 17.2308 34.006 16.8078 33.6404C16.6596 33.5123 16.6008 33.368 16.5105 33.2011C16.3079 32.8268 16.1313 32.4926 16.1053 32.0567C16.0738 31.5317 16.3184 31.1607 16.6525 30.7805C16.9941 30.6865 17.5489 30.2316 17.8269 29.9895Z" fill="url(#paint22_linear_374_5089)"/>
<path d="M6.28168 16.2571C6.42353 16.1198 6.8496 15.7815 7.03568 15.7584C7.25879 15.6145 7.47432 15.4576 7.69859 15.3163C8.2487 14.9697 8.83533 14.6354 9.4237 14.3577C10.5641 13.7593 12.1031 13.1801 13.3844 13.553C13.8538 13.6896 14.1592 14.0451 14.3821 14.4662C14.6101 14.8973 14.6606 15.7445 14.5089 16.2086C14.354 16.6823 13.9741 17.0045 13.5385 17.2271C12.1809 17.9209 9.81353 17.4071 8.41696 16.9836C7.91829 16.8324 7.41697 16.6663 6.92564 16.4929C6.70986 16.4167 6.50004 16.3263 6.28168 16.2571ZM7.03568 15.7584C7.09625 15.7752 7.10367 15.7856 7.16052 15.7539C7.34583 15.6507 7.52274 15.5008 7.69764 15.3787C7.62298 15.4617 7.53029 15.5305 7.44015 15.5961L7.44345 15.6218L7.41863 15.6322L7.4101 15.6224L7.42933 15.6046L7.4249 15.6295C7.60593 15.542 7.75797 15.4115 7.92803 15.306C8.2111 15.1304 8.53808 14.9971 8.78962 14.7793C8.84004 14.7357 8.89767 14.6795 8.96077 14.6595L8.96253 14.7065C9.13957 14.6505 9.30917 14.5018 9.4237 14.3577C8.83533 14.6354 8.2487 14.9697 7.69859 15.3163C7.47432 15.4576 7.25879 15.6145 7.03568 15.7584Z" fill="url(#paint23_linear_374_5089)"/>
<path d="M7.03568 15.7584C7.25879 15.6145 7.47432 15.4576 7.69859 15.3163C8.2487 14.9697 8.83533 14.6354 9.4237 14.3577C9.30917 14.5018 9.13957 14.6505 8.96253 14.7065L8.96077 14.6595C8.89767 14.6795 8.84004 14.7357 8.78962 14.7793C8.53808 14.9971 8.2111 15.1304 7.92803 15.306C7.75797 15.4115 7.60593 15.542 7.4249 15.6295L7.42933 15.6046L7.4101 15.6224L7.41863 15.6322L7.44345 15.6218L7.44015 15.5961C7.53029 15.5305 7.62298 15.4617 7.69764 15.3787C7.52274 15.5008 7.34583 15.6507 7.16052 15.7539C7.10367 15.7856 7.09625 15.7752 7.03568 15.7584Z" fill="url(#paint24_linear_374_5089)"/>
<path d="M16.01 19.7006C16.0828 19.8135 16.153 19.9376 16.2115 20.0588C16.4302 20.5119 16.283 21.0986 16.1238 21.5485C15.9506 22.0382 15.69 22.4488 15.2064 22.6792C14.6423 22.9481 13.6108 22.8189 13.0376 22.6168C11.4887 22.0708 10.2288 21.063 8.98807 20.022C8.78363 19.8505 8.28539 19.4649 8.18156 19.2437L8.202 19.2184C9.67127 18.8963 11.1307 18.6425 12.6363 18.5856C12.9169 18.5959 13.1988 18.5925 13.4787 18.6137C14.3807 18.6822 15.3219 18.9477 15.9549 19.6192C15.9798 19.6456 15.9941 19.6684 16.01 19.7006ZM12.6363 18.5856C12.6342 18.6407 12.6224 18.6625 12.6596 18.705C12.7391 18.7163 12.8187 18.7164 12.8984 18.7052C12.9244 18.7012 13.0099 18.6667 13.0307 18.672C13.0307 18.672 13.0856 18.7099 13.0893 18.7116C13.1655 18.7489 13.4024 18.7168 13.4855 18.6985C13.5096 18.6932 13.4991 18.693 13.5213 18.6989L13.5203 18.7229C13.6583 18.7993 14.0853 18.8024 14.267 18.8455C14.5329 18.9087 14.7799 19.0207 15.0424 19.0915C15.1961 19.1331 15.3199 19.2718 15.4761 19.3243C15.6489 19.3824 15.8341 19.7065 16.01 19.7006C15.9941 19.6684 15.9798 19.6456 15.9549 19.6192C15.3219 18.9477 14.3807 18.6822 13.4787 18.6137C13.1988 18.5925 12.9169 18.5959 12.6363 18.5856Z" fill="url(#paint25_linear_374_5089)"/>
<path d="M12.6363 18.5856C12.9169 18.5959 13.1988 18.5925 13.4787 18.6137C14.3807 18.6822 15.3219 18.9477 15.9549 19.6192C15.9798 19.6456 15.9941 19.6684 16.01 19.7006C15.8341 19.7065 15.6489 19.3824 15.4761 19.3243C15.3199 19.2718 15.1961 19.1331 15.0424 19.0915C14.7799 19.0207 14.5329 18.9087 14.267 18.8455C14.0853 18.8024 13.6583 18.7993 13.5203 18.7229L13.5213 18.6989C13.4991 18.693 13.5096 18.6932 13.4855 18.6985C13.4024 18.7168 13.1655 18.7489 13.0893 18.7116C13.0856 18.7099 13.0307 18.672 13.0307 18.672C13.0099 18.6667 12.9244 18.7012 12.8984 18.7052C12.8187 18.7164 12.7391 18.7163 12.6596 18.705C12.6224 18.6625 12.6342 18.6407 12.6363 18.5856Z" fill="url(#paint26_linear_374_5089)"/>
<path d="M13.7983 39.3817C13.6814 39.087 13.586 38.7663 13.5672 38.4476C13.541 38.005 13.6591 37.5837 13.9603 37.2481C14.0949 37.0982 14.2688 36.9771 14.4364 36.8671C15.3849 36.2451 16.4747 36.1796 17.5667 36.1107C17.912 36.1353 18.2601 36.1303 18.6063 36.1539C19.3557 36.2049 20.0867 36.2952 20.829 36.4057C21.0448 36.4377 21.3548 36.4496 21.5501 36.5426L21.579 36.5801C21.5701 36.6321 21.5608 36.6339 21.5211 36.6704C21.5117 36.6858 21.5066 36.6953 21.4963 36.7094C21.2739 37.0156 20.7685 37.4216 20.471 37.6876C20.2839 37.8548 20.1055 38.0345 19.9129 38.1948C19.7589 38.3231 19.5893 38.4321 19.435 38.5599C19.2538 38.7101 19.0949 38.8839 18.9092 39.0299C18.6306 39.249 18.3439 39.4169 18.0408 39.597C17.3579 40.0028 16.7363 40.335 15.9395 40.4627C15.4575 40.5398 14.8376 40.5512 14.4283 40.2504C14.3511 40.1937 14.1632 40.0449 14.1507 39.9595C14.0185 39.7748 13.8908 39.59 13.7983 39.3817ZM17.5667 36.1107L17.589 36.1787L17.5694 36.1461L17.6033 36.2202C17.6516 36.2176 17.6239 36.2221 17.6683 36.2082C17.7092 36.1954 17.6903 36.1976 17.7354 36.2057L17.7416 36.2515C17.8374 36.2477 17.8535 36.164 17.9404 36.2369L17.9269 36.2124C18.0627 36.2375 18.2443 36.2818 18.3718 36.2118L18.3526 36.2316L18.3807 36.2261L18.3967 36.2577C18.5776 36.2969 18.716 36.277 18.8941 36.2861C19.0299 36.2931 19.1634 36.3226 19.2988 36.3335C19.4379 36.3447 19.5785 36.3385 19.7174 36.3535C20.0957 36.3944 20.4707 36.5001 20.8488 36.5351C21.0534 36.554 21.2024 36.5031 21.4045 36.6136C21.4125 36.642 21.42 36.6707 21.4271 36.6994C21.4582 36.6886 21.4887 36.6759 21.5211 36.6704C21.5608 36.6339 21.5701 36.6321 21.579 36.5801L21.5501 36.5426C21.3548 36.4496 21.0448 36.4377 20.829 36.4057C20.0867 36.2952 19.3557 36.2049 18.6063 36.1539C18.2601 36.1303 17.912 36.1353 17.5667 36.1107ZM14.1507 39.9595C14.1648 39.9048 14.1673 39.8872 14.1453 39.8355C14.077 39.6753 13.963 39.4478 13.7983 39.3817C13.8908 39.59 14.0185 39.7748 14.1507 39.9595Z" fill="url(#paint27_linear_374_5089)"/>
<path d="M14.1507 39.9595C14.0185 39.7748 13.8908 39.59 13.7983 39.3817C13.963 39.4478 14.077 39.6753 14.1453 39.8355C14.1673 39.8872 14.1648 39.9048 14.1507 39.9595Z" fill="url(#paint28_linear_374_5089)"/>
<path d="M17.5667 36.1107C17.912 36.1353 18.2601 36.1303 18.6063 36.1539C19.3557 36.2049 20.0867 36.2952 20.829 36.4057C21.0448 36.4377 21.3548 36.4496 21.5501 36.5426L21.579 36.5801C21.5701 36.6321 21.5608 36.6339 21.5211 36.6704C21.4887 36.6759 21.4582 36.6886 21.4271 36.6994C21.42 36.6707 21.4125 36.642 21.4045 36.6136C21.2024 36.5031 21.0534 36.554 20.8488 36.5351C20.4707 36.5001 20.0957 36.3944 19.7174 36.3535C19.5785 36.3385 19.4379 36.3447 19.2988 36.3335C19.1634 36.3226 19.0299 36.2931 18.8941 36.2861C18.716 36.277 18.5776 36.2969 18.3967 36.2577L18.3807 36.2261L18.3526 36.2316L18.3718 36.2118C18.2443 36.2818 18.0627 36.2375 17.9269 36.2124L17.9404 36.2369C17.8535 36.164 17.8374 36.2477 17.7416 36.2515L17.7354 36.2057C17.6903 36.1976 17.7092 36.1954 17.6683 36.2082C17.6239 36.2221 17.6516 36.2176 17.6033 36.2202L17.5694 36.1461L17.589 36.1787L17.5667 36.1107Z" fill="url(#paint29_linear_374_5089)"/>
<defs>
<linearGradient id="paint0_linear_374_5089" x1="-5.94759" y1="8.75565" x2="17.5638" y2="41.1163" gradientUnits="userSpaceOnUse">
<stop offset="0.15" stop-color="#4DD3FF"/>
<stop offset="1" stop-color="#1B3C72"/>
</linearGradient>
<linearGradient id="paint1_linear_374_5089" x1="-5.94759" y1="8.75565" x2="17.5638" y2="41.1163" gradientUnits="userSpaceOnUse">
<stop offset="0.15" stop-color="#4DD3FF"/>
<stop offset="1" stop-color="#1B3C72"/>
</linearGradient>
<linearGradient id="paint2_linear_374_5089" x1="-5.94759" y1="8.75565" x2="17.5638" y2="41.1163" gradientUnits="userSpaceOnUse">
<stop offset="0.15" stop-color="#4DD3FF"/>
<stop offset="1" stop-color="#1B3C72"/>
</linearGradient>
<linearGradient id="paint3_linear_374_5089" x1="-5.94759" y1="8.75565" x2="17.5638" y2="41.1163" gradientUnits="userSpaceOnUse">
<stop offset="0.15" stop-color="#4DD3FF"/>
<stop offset="1" stop-color="#1B3C72"/>
</linearGradient>
<linearGradient id="paint4_linear_374_5089" x1="-5.94759" y1="8.75565" x2="17.5638" y2="41.1163" gradientUnits="userSpaceOnUse">
<stop offset="0.15" stop-color="#4DD3FF"/>
<stop offset="1" stop-color="#1B3C72"/>
</linearGradient>
<linearGradient id="paint5_linear_374_5089" x1="-5.94759" y1="8.75565" x2="17.5638" y2="41.1163" gradientUnits="userSpaceOnUse">
<stop offset="0.15" stop-color="#4DD3FF"/>
<stop offset="1" stop-color="#1B3C72"/>
</linearGradient>
<linearGradient id="paint6_linear_374_5089" x1="-5.94759" y1="8.75565" x2="17.5638" y2="41.1163" gradientUnits="userSpaceOnUse">
<stop offset="0.15" stop-color="#4DD3FF"/>
<stop offset="1" stop-color="#1B3C72"/>
</linearGradient>
<linearGradient id="paint7_linear_374_5089" x1="-5.94759" y1="8.75565" x2="17.5638" y2="41.1163" gradientUnits="userSpaceOnUse">
<stop offset="0.15" stop-color="#4DD3FF"/>
<stop offset="1" stop-color="#1B3C72"/>
</linearGradient>
<linearGradient id="paint8_linear_374_5089" x1="-5.94759" y1="8.75565" x2="17.5638" y2="41.1163" gradientUnits="userSpaceOnUse">
<stop offset="0.15" stop-color="#4DD3FF"/>
<stop offset="1" stop-color="#1B3C72"/>
</linearGradient>
<linearGradient id="paint9_linear_374_5089" x1="-5.94759" y1="8.75565" x2="17.5638" y2="41.1163" gradientUnits="userSpaceOnUse">
<stop offset="0.15" stop-color="#4DD3FF"/>
<stop offset="1" stop-color="#1B3C72"/>
</linearGradient>
<linearGradient id="paint10_linear_374_5089" x1="-5.94759" y1="8.75565" x2="17.5638" y2="41.1163" gradientUnits="userSpaceOnUse">
<stop offset="0.15" stop-color="#4DD3FF"/>
<stop offset="1" stop-color="#1B3C72"/>
</linearGradient>
<linearGradient id="paint11_linear_374_5089" x1="-5.94759" y1="8.75565" x2="17.5638" y2="41.1163" gradientUnits="userSpaceOnUse">
<stop offset="0.15" stop-color="#4DD3FF"/>
<stop offset="1" stop-color="#1B3C72"/>
</linearGradient>
<linearGradient id="paint12_linear_374_5089" x1="-5.94759" y1="8.75565" x2="17.5638" y2="41.1163" gradientUnits="userSpaceOnUse">
<stop offset="0.15" stop-color="#4DD3FF"/>
<stop offset="1" stop-color="#1B3C72"/>
</linearGradient>
<linearGradient id="paint13_linear_374_5089" x1="-5.94759" y1="8.75565" x2="17.5638" y2="41.1163" gradientUnits="userSpaceOnUse">
<stop offset="0.15" stop-color="#4DD3FF"/>
<stop offset="1" stop-color="#1B3C72"/>
</linearGradient>
<linearGradient id="paint14_linear_374_5089" x1="-5.94759" y1="8.75565" x2="17.5638" y2="41.1163" gradientUnits="userSpaceOnUse">
<stop offset="0.15" stop-color="#4DD3FF"/>
<stop offset="1" stop-color="#1B3C72"/>
</linearGradient>
<linearGradient id="paint15_linear_374_5089" x1="-5.94759" y1="8.75565" x2="17.5638" y2="41.1163" gradientUnits="userSpaceOnUse">
<stop offset="0.15" stop-color="#4DD3FF"/>
<stop offset="1" stop-color="#1B3C72"/>
</linearGradient>
<linearGradient id="paint16_linear_374_5089" x1="-5.94759" y1="8.75565" x2="17.5638" y2="41.1163" gradientUnits="userSpaceOnUse">
<stop offset="0.15" stop-color="#4DD3FF"/>
<stop offset="1" stop-color="#1B3C72"/>
</linearGradient>
<linearGradient id="paint17_linear_374_5089" x1="-5.94759" y1="8.75565" x2="17.5638" y2="41.1163" gradientUnits="userSpaceOnUse">
<stop offset="0.15" stop-color="#4DD3FF"/>
<stop offset="1" stop-color="#1B3C72"/>
</linearGradient>
<linearGradient id="paint18_linear_374_5089" x1="-5.94759" y1="8.75565" x2="17.5638" y2="41.1163" gradientUnits="userSpaceOnUse">
<stop offset="0.15" stop-color="#4DD3FF"/>
<stop offset="1" stop-color="#1B3C72"/>
</linearGradient>
<linearGradient id="paint19_linear_374_5089" x1="-5.94759" y1="8.75565" x2="17.5638" y2="41.1163" gradientUnits="userSpaceOnUse">
<stop offset="0.15" stop-color="#4DD3FF"/>
<stop offset="1" stop-color="#1B3C72"/>
</linearGradient>
<linearGradient id="paint20_linear_374_5089" x1="-5.94759" y1="8.75565" x2="17.5638" y2="41.1163" gradientUnits="userSpaceOnUse">
<stop offset="0.15" stop-color="#4DD3FF"/>
<stop offset="1" stop-color="#1B3C72"/>
</linearGradient>
<linearGradient id="paint21_linear_374_5089" x1="-5.94759" y1="8.75565" x2="17.5638" y2="41.1163" gradientUnits="userSpaceOnUse">
<stop offset="0.15" stop-color="#4DD3FF"/>
<stop offset="1" stop-color="#1B3C72"/>
</linearGradient>
<linearGradient id="paint22_linear_374_5089" x1="-5.94759" y1="8.75565" x2="17.5638" y2="41.1163" gradientUnits="userSpaceOnUse">
<stop offset="0.15" stop-color="#4DD3FF"/>
<stop offset="1" stop-color="#1B3C72"/>
</linearGradient>
<linearGradient id="paint23_linear_374_5089" x1="-5.94759" y1="8.75565" x2="17.5638" y2="41.1163" gradientUnits="userSpaceOnUse">
<stop offset="0.15" stop-color="#4DD3FF"/>
<stop offset="1" stop-color="#1B3C72"/>
</linearGradient>
<linearGradient id="paint24_linear_374_5089" x1="-5.94759" y1="8.75565" x2="17.5638" y2="41.1163" gradientUnits="userSpaceOnUse">
<stop offset="0.15" stop-color="#4DD3FF"/>
<stop offset="1" stop-color="#1B3C72"/>
</linearGradient>
<linearGradient id="paint25_linear_374_5089" x1="-5.94759" y1="8.75565" x2="17.5638" y2="41.1163" gradientUnits="userSpaceOnUse">
<stop offset="0.15" stop-color="#4DD3FF"/>
<stop offset="1" stop-color="#1B3C72"/>
</linearGradient>
<linearGradient id="paint26_linear_374_5089" x1="-5.94759" y1="8.75565" x2="17.5638" y2="41.1163" gradientUnits="userSpaceOnUse">
<stop offset="0.15" stop-color="#4DD3FF"/>
<stop offset="1" stop-color="#1B3C72"/>
</linearGradient>
<linearGradient id="paint27_linear_374_5089" x1="-5.94759" y1="8.75565" x2="17.5638" y2="41.1163" gradientUnits="userSpaceOnUse">
<stop offset="0.15" stop-color="#4DD3FF"/>
<stop offset="1" stop-color="#1B3C72"/>
</linearGradient>
<linearGradient id="paint28_linear_374_5089" x1="-5.94759" y1="8.75565" x2="17.5638" y2="41.1163" gradientUnits="userSpaceOnUse">
<stop offset="0.15" stop-color="#4DD3FF"/>
<stop offset="1" stop-color="#1B3C72"/>
</linearGradient>
<linearGradient id="paint29_linear_374_5089" x1="-5.94759" y1="8.75565" x2="17.5638" y2="41.1163" gradientUnits="userSpaceOnUse">
<stop offset="0.15" stop-color="#4DD3FF"/>
<stop offset="1" stop-color="#1B3C72"/>
</linearGradient>
</defs>
</svg>
