<svg width="42" height="42" viewBox="0 0 42 42" fill="none" xmlns="http://www.w3.org/2000/svg">
<path d="M22.6597 20.3703C22.6565 20.3657 22.6533 20.3611 22.6502 20.3565L16.3987 11.7034H13.0629L27.2095 31.2917H30.5473L22.6691 20.3835C22.6659 20.3791 22.6628 20.3747 22.6597 20.3703Z" fill="black"/>
<path fill-rule="evenodd" clip-rule="evenodd" d="M21.1826 41.4194C32.5289 41.4194 41.7269 32.2213 41.7269 20.875C41.7269 9.52866 32.5289 0.330627 21.1826 0.330627C9.83621 0.330627 0.638184 9.52866 0.638184 20.875C0.638184 32.2213 9.83621 41.4194 21.1826 41.4194ZM10.9104 9.50222C10.4971 9.50222 10.1186 9.73378 9.93044 10.1018C9.74228 10.4698 9.77616 10.9121 10.0181 11.2472L18.6078 23.1404L10.1322 31.614C9.70237 32.0437 9.70228 32.7406 10.132 33.1704C10.5618 33.6003 11.2587 33.6004 11.6885 33.1706L19.9132 24.9479L25.7545 33.0366C25.9614 33.3232 26.2933 33.4929 26.6467 33.4929H32.6999C33.1132 33.4929 33.4916 33.2613 33.6798 32.8933C33.8679 32.5253 33.8341 32.083 33.5921 31.7479L25.0041 19.857L33.4782 11.381C33.9079 10.9511 33.9079 10.2542 33.478 9.82448C33.0481 9.39473 32.3513 9.39481 31.9215 9.82467L23.6989 18.0493L17.8534 9.95829C17.6465 9.67187 17.3147 9.50222 16.9613 9.50222H10.9104Z" fill="black"/>
</svg>
