<svg width="42" height="42" viewBox="0 0 42 42" fill="none" xmlns="http://www.w3.org/2000/svg">
<g clip-path="url(#clip0_374_6468)">
<path d="M21.3193 0.330627C32.6659 0.330627 41.8636 9.52834 41.8636 20.875C41.8636 32.2216 32.6659 41.4193 21.3193 41.4193C17.6886 41.4256 14.1217 40.4647 10.9855 38.6356L0.783152 41.4193L3.56075 31.2129C1.73016 28.0756 0.768571 24.5073 0.774934 20.875C0.774934 9.52834 9.97264 0.330627 21.3193 0.330627ZM14.3178 11.2191L13.9069 11.2356C13.6412 11.2539 13.3817 11.3237 13.1426 11.441C12.9199 11.5674 12.7165 11.7251 12.5386 11.9094C12.2921 12.1416 12.1524 12.3429 12.0024 12.5381C11.2425 13.5261 10.8334 14.739 10.8396 15.9854C10.8437 16.9921 11.1067 17.9721 11.5176 18.8883C12.3578 20.7414 13.7405 22.7034 15.5648 24.5216C16.0045 24.9592 16.4359 25.3988 16.9002 25.8077C19.1671 27.8034 21.8684 29.2426 24.7892 30.0111L25.9562 30.1898C26.3362 30.2103 26.7163 30.1816 27.0984 30.1631C27.6966 30.1315 28.2807 29.9696 28.8098 29.6885C29.0786 29.5495 29.3411 29.3987 29.5966 29.2365C29.5966 29.2365 29.6836 29.1776 29.8534 29.0516C30.1308 28.8462 30.3013 28.7003 30.5314 28.46C30.704 28.2819 30.8478 28.0751 30.9628 27.8395C31.1231 27.5046 31.2833 26.8657 31.349 26.3336C31.3983 25.9268 31.384 25.705 31.3778 25.5673C31.3696 25.3475 31.1867 25.1194 30.9875 25.0229L29.7918 24.4867C29.7918 24.4867 28.0044 23.708 26.9115 23.2109C26.7971 23.1611 26.6745 23.1325 26.5499 23.1266C26.4093 23.1119 26.2672 23.1276 26.1332 23.1726C25.9992 23.2177 25.8765 23.291 25.7733 23.3876C25.763 23.3834 25.6254 23.5006 24.14 25.3002C24.0548 25.4148 23.9373 25.5014 23.8027 25.5489C23.6681 25.5965 23.5223 25.6029 23.384 25.5673C23.2501 25.5316 23.119 25.4863 22.9916 25.4317C22.7368 25.3249 22.6485 25.2838 22.4739 25.2098C21.2944 24.696 20.2026 24.0008 19.2381 23.1492C18.9793 22.9233 18.7389 22.6767 18.4924 22.4384C17.6842 21.6643 16.9798 20.7887 16.3969 19.8334L16.2756 19.6382C16.1899 19.5063 16.1196 19.365 16.0661 19.2171C15.988 18.9151 16.1914 18.6726 16.1914 18.6726C16.1914 18.6726 16.6906 18.1261 16.9228 17.8303C17.1488 17.5427 17.3398 17.2633 17.4631 17.064C17.7055 16.6737 17.7816 16.273 17.6542 15.9628C17.0789 14.5576 16.4845 13.1599 15.8709 11.7697C15.7497 11.4944 15.3902 11.2972 15.0635 11.2582C14.9526 11.2445 14.8417 11.2335 14.7307 11.2253C14.4549 11.2095 14.1783 11.2122 13.9028 11.2335L14.3178 11.2191Z" fill="black"/>
</g>
<defs>
<clipPath id="clip0_374_6468">
<rect width="41.0887" height="41.0887" fill="white" transform="translate(0.774658 0.330627)"/>
</clipPath>
</defs>
</svg>
